<?xml version="1.0" encoding="UTF-8"?>
<svg width="166px" height="186px" viewBox="0 0 166 186" version="1.1" xmlns="http://www.w3.org/2000/svg" xmlns:xlink="http://www.w3.org/1999/xlink">
    <!-- Generator: Sketch 41.2 (35397) - http://www.bohemiancoding.com/sketch -->
    <title>Cl</title>
    <desc>Created with Sketch.</desc>
    <defs></defs>
    <g id="Page-1" stroke="none" stroke-width="1" fill="none" fill-rule="evenodd">
        <g id="Desktop" transform="translate(-453.000000, -749.000000)">
            <g id="Cl" transform="translate(453.000000, 749.000000)">
                <g id="Chlorine">
                    <path d="M8.7594448,5.7443205 C11.5446499,2.14813204 38.6430459,2.83905053 69.3442205,3.64899258 C80.6623998,3.94758276 93.5316552,4.85838209 107.209705,4.69665654 C120.887756,4.53493099 153.959447,3.70684305 158.057642,10.9826403 C160.740925,15.7464507 156.975771,42.4125592 158.057642,75.937806 C159.139513,109.463053 158.879742,173.440595 156.975771,176.513546 C153.730158,181.751866 5.51383182,176.513546 5.51383182,176.513546 C5.51383182,176.513546 0.104476846,22.5069439 1.18634784,15.1732962 C2.26821884,7.83964843 8.09902405,6.59703958 8.7594448,5.7443205 Z" id="Rectangle-8" fill="#8AF9C3"></path>
                    <g id="CH-01">
                        <g id="Layer_2">
                            <path d="M11.7,20.1 C7.4,43.3 5.7,66.8 7,90.3 C7.5,99.9 22.3,100 22,90.3 C21.5,75.1 21,60 20.5,44.8 C20.3,38.9 19.6,32.4 21.2,26.6 C22.4,22.2 26,17.4 31.1,19.1 C38,21.4 44.1,11.4 38.4,6.6 C29.4,-1 16.6,2.8 11.4,13.1 C8.7,18.3 8.2,24.1 7.5,29.8 C6.7,36.9 6,44.1 5.5,51.3 C3.5,78.7 3.6,106.2 3.9,133.7 C4,144.7 3,157 7.5,167.3 C12.7,179.1 23.6,181 35.2,182.4 C62.5,185.8 90.2,186.4 117.6,184 C123.9,183.5 130.2,182.8 136.5,182 C142.8,181.2 149.2,180.3 154.1,175.7 C162.7,167.7 162.5,153.6 163.6,142.9 C166.3,115 166.8,86.8 164.9,58.8 C164.5,52.3 163.9,45.8 163.3,39.3 C162.6,33 162.5,26.2 160.7,20 C159.2,15 156.4,10.5 151.7,8 C146.2,5 139.5,5.7 133.5,5.7 C105.7,5.6 77.9,5.5 50,5.4 C43.9,5.4 36.1,4.1 31.1,8.6 C26.1,13 24.8,22.1 23.3,28 C19.7,42.5 17.7,57.3 16.6,72.2 C14.4,102.7 16,133.4 16.6,163.9 C16.8,173.5 31.8,173.6 31.6,163.9 C30.6,119 26.8,72.2 38.7,28.4 C39.2,26.4 41.4,22.2 41.1,20.4 C41.2,20.1 41.3,19.8 41.4,19.5 C39.4,20.2 39,20.5 40.3,20.4 C41.1,20.9 44,20.4 44.9,20.4 C50.8,20.4 56.7,20.4 62.6,20.5 C74.4,20.5 86.2,20.6 97.9,20.6 C109.6,20.6 121.5,20.7 133.2,20.7 C136.2,20.7 142.9,19.4 145.1,22 C147.6,24.9 147.3,32 147.6,35.4 C150.2,58.7 151.2,82.3 150.6,105.7 C150.3,117.4 149.6,129.2 148.5,140.9 C148,146.2 147.7,151.6 146.7,156.9 C146,160.8 145.1,164.8 141,166.1 C136.1,167.8 130.2,167.7 125,168.2 C119.3,168.8 113.5,169.3 107.7,169.6 C96.1,170.3 84.4,170.5 72.8,170.2 C61.2,169.9 49.5,169 37.9,167.7 C33.7,167.2 28.2,167.2 24.4,165.1 C21.2,163.3 20.2,159.6 19.6,156.3 C18.7,151.4 18.9,146.4 18.9,141.4 C18.8,134.9 18.7,128.3 18.7,121.8 C18.6,108.7 18.6,95.6 18.9,82.5 C19.2,69.1 19.9,55.7 21.1,42.4 C21.6,36.5 22,30.3 23.2,24.5 C23.5,23.3 26.1,15.8 27.8,17.2 C30.2,13 32.7,8.8 35.1,4.7 C27.6,2.1 19.4,4.8 13.8,10.3 C7.8,16.2 5.8,24.5 5.4,32.7 C5,42 5.8,51.4 6.1,60.7 C6.4,70.6 6.8,80.5 7.1,90.4 L22.1,90.4 C20.9,68.2 22.2,46 26.3,24.2 C27.9,14.6 13.5,10.6 11.7,20.1 L11.7,20.1 Z" id="Shape" fill="#8AF9C3"></path>
                            <path d="M23.7,4.4 C17.4,2 10.3,5.2 6.8,10.6 C2.3,17.6 3.6,26.7 3.9,34.6 C4.7,53.5 5.6,72.5 6.4,91.4 L18.4,91.4 C16.8,75.1 15.2,58.9 13.5,42.6 C9.6,43.1 5.6,43.7 1.7,44.2 C8.2,85 6.3,126.7 11.5,167.7 C14.5,166 17.5,164.2 20.5,162.5 C19,161.4 18.3,159.9 17.5,158.2 C15.2,153.1 8,155.2 6.5,159.6 C5.4,162.9 5.4,165.9 6.2,169.3 C10.1,168.2 13.9,167.2 17.8,166.1 C16.1,161.9 14.9,157.6 14.4,153.1 C13.6,145.5 2.8,145.2 2.4,153.1 C2,160.9 2.3,169.5 8.2,175.4 C13.5,180.6 21.7,182.1 27.8,177.4 C34.6,172.1 34.6,163.6 33.4,155.8 C32,146.2 30.7,136.7 29.9,127.1 C28.3,108 28.2,88.7 30,69.6 C30.9,60 32.4,50.4 34.5,40.9 C36,34.1 37.8,26 43.8,21.7 C41.1,21 38.3,20.3 35.6,19.5 C36.8,21.4 35.2,25.1 34.7,27 C33.9,30 32.9,33 32,36 C30,42.3 28.3,48.6 27.3,55.1 C25.3,68 25.2,81 25.7,94 C26.6,118.1 27.1,143.4 38.7,165.2 C41,162.3 43.2,159.3 45.5,156.4 C40.6,154.7 35.4,155.3 31,158.1 C26.5,161 27.6,167.4 32.4,169.1 C38.4,171.2 45.9,171.5 51.7,168.5 C57.7,165.4 57.6,159.5 56.9,153.6 C55.1,138.7 53.9,123.7 52.8,108.7 C51.7,93.8 51.3,79 53.9,64.3 C55.2,57 57,49.7 59,42.5 C60,38.9 61,35.3 62.1,31.7 C62.4,30.6 63.5,24.2 64.8,23.9 C63.7,20 62.7,16.2 61.6,12.3 C59.8,13 58,13.6 56.2,14.3 C49.6,16.7 51.1,25.3 57.8,26.1 C63.2,26.7 68.3,23.6 70.8,30.2 C72.9,35.7 70.1,42.3 68.7,47.7 C65.6,60 64.6,72.7 63.8,85.3 C63,98.1 62.4,111 59.5,123.5 C58.1,129.6 56.3,135.6 55.3,141.9 C55.1,143.3 54.3,160 54.4,160 C56.3,161.5 58.3,162.9 60.2,164.4 C55.5,133.2 58,101.5 60.4,70.2 C61,62.5 49,62.5 48.4,70.2 C45.9,102.7 43.8,135.2 48.7,167.6 C49.1,170 52.1,172.2 54.5,172 C62.3,171.2 66.5,165.3 66.7,157.8 C66.8,154.3 66.4,150.8 66.7,147.2 C67.1,142.8 68.3,138.4 69.3,134.1 C73.3,118 74.9,101.9 75.9,85.4 C76.4,77 77,68.5 78.4,60.1 C79.7,52.5 82.6,45 83.3,37.3 C83.9,30.7 82.4,24 77.8,19.1 C75.6,16.8 72.7,14.9 69.6,14.2 C65.7,13.3 61.8,14.7 57.9,14.2 C58.4,18.1 59,22.1 59.5,26 C61.3,25.3 63.1,24.7 64.9,24 C72,21.4 69.3,10.4 61.7,12.4 C55.9,14 53.6,18.8 51.9,24.1 C49.9,30.6 48,37.2 46.3,43.9 C42.8,57.4 40.2,71.3 39.9,85.3 C39.6,99.6 41.2,113.9 42.4,128 C43,135 43.6,142 44.4,149 C44.6,150.9 44.8,152.8 45.1,154.7 C45,154 45.6,159.3 46.1,158.1 C45.7,159 41.5,158.9 40.9,158.9 C39.1,158.8 37.4,158.3 35.7,157.7 C36.2,161.4 36.7,165 37.1,168.7 C39,167.5 40.2,167.4 42.3,168.2 C47.5,170 51.4,163.7 49.1,159.4 C37.6,137.8 38,110.7 37.5,86.8 C37.3,74 37.8,61 41,48.5 C42.6,42.1 45,35.9 46.6,29.6 C48,24.2 49.2,18.7 46.1,13.7 C44.5,11.1 40.6,9.6 37.9,11.5 C26.2,19.8 23.6,34 21.2,47.3 C18.3,63.6 16.9,80.1 16.8,96.6 C16.7,113.3 17.9,129.9 20.1,146.4 C20.6,150.1 21.2,153.8 21.7,157.5 C22.1,160 23.5,166.6 20.5,168.2 C18.3,169.4 16.1,166.6 15.3,164.9 C13.7,161.5 14.3,156.9 14.5,153.3 L2.5,153.3 C3.1,158.9 4.2,164.3 6.3,169.5 C9.1,176.5 19.7,174 17.9,166.3 C17.5,165.1 17.6,164 18.2,163 C14.5,163.5 10.9,164 7.2,164.4 C8.9,168 11.4,170.6 14.5,173 C17.9,175.6 24.1,172.1 23.5,167.8 C18.3,125.6 20,83 13.4,41 C12.3,34.4 0.9,35.9 1.6,42.6 C3.2,58.9 4.8,75.1 6.5,91.4 C7.3,98.9 18.8,99.2 18.5,91.4 C17.9,77.1 17.2,62.8 16.6,48.5 C16.3,41.5 15.9,34.5 15.7,27.6 C15.6,24.6 14.9,13.8 20.6,16 C27.8,18.7 30.9,7.1 23.7,4.4 L23.7,4.4 Z" id="Shape" fill="#8AF9C3"></path>
                            <path d="M93.2,45.9 C93.3,55.7 95.4,65.4 94.9,75.2 C94.4,83.9 89.7,92.1 91.7,100.9 C92.1,102.6 94.6,102.2 94.6,100.5 C94.8,86.5 94.7,72.6 94.6,58.6 C94.6,56.7 91.6,56.7 91.6,58.6 C91.8,72.6 91.8,86.5 91.6,100.5 C92.6,100.4 93.6,100.2 94.5,100.1 C92.5,91.4 97.7,82.1 97.9,73.3 C98.1,64.1 96.3,55.1 96.2,45.9 C96.2,44 93.2,44 93.2,45.9 L93.2,45.9 Z" id="Shape" fill="#8AF9C3"></path>
                            <path d="M93.2,17.7 C87.9,16.4 82.6,15.9 77.2,16.1 C72.8,16.3 69.5,21.1 72,25.1 C76.3,31.8 84.4,31.1 91.5,31.6 C100.6,32.2 109.7,32.8 118.9,33.5 C124.4,33.9 126.4,26.8 123.1,23.3 C117.7,17.5 108.9,15.7 101.9,19.8 C93.2,24.9 92.7,34.3 94.5,43.2 C96.6,53.4 98.2,63.6 98.5,74 C98.8,85 96.7,95.4 94.1,106.1 C98,106.6 102,107.2 105.9,107.7 C105.9,86 105.6,64.3 102.5,42.7 C102.1,39.8 98.6,38 95.9,38.4 C92.7,38.8 91.1,41.3 90.7,44.3 C88.7,60.9 89.7,77.7 90.2,94.4 C90.4,102.6 90.7,110.7 90.9,118.9 C91.1,126.7 92.3,135.2 89.7,142.7 L101.3,142.7 C99.9,135.7 99,128.7 98.6,121.6 C98.2,115.3 87.9,112.9 86.8,120 C85,132.2 83.6,144.5 82.7,156.8 L94.7,156.8 C95.9,134.3 96.7,111.7 92,89.4 C90.4,81.8 78.9,85.1 80.4,92.6 C82.7,103.9 83.8,115.4 83.5,126.9 C83.4,132.3 82.9,137.8 82.2,143.2 C81.7,146.7 81.2,156.1 76.3,156.5 C71.5,156.9 67.9,163 72.1,166.7 C75.8,170.1 80,172.5 84.8,174 C85.3,170.1 85.9,166.1 86.4,162.2 C83.2,162.4 80,162.4 76.7,162.3 L76.7,174.3 C90.4,172.7 104.2,172.6 117.8,174.5 C121.4,175 125.6,173 125.4,168.7 C124.7,156.7 119.5,145.7 116.4,134.3 C113.1,122.5 111,110.5 110.1,98.4 C109.5,90.8 97.9,90.6 98.1,98.4 C98.5,114.3 100.1,130.1 102.7,145.7 C103.7,151.8 112.8,151 114.3,145.7 C116.4,138.3 115.9,130.7 115.4,123.1 C114.8,114.4 114.1,105.8 113.5,97.1 C112.4,80.1 111.7,62.8 114.1,45.9 C112.2,47.4 110.2,48.8 108.3,50.3 C108.6,50.3 108.9,50.2 109.2,50.2 C107.8,49.6 106.4,49 105,48.4 C107.1,50.1 107.3,56.3 107.5,59 C107.8,63 107.6,67.1 106.9,71.1 C105.8,78.2 101.9,85.6 105.9,92.4 C108.4,96.6 115.8,96.2 116.9,91 C118.7,81.9 120.5,72.8 122.3,63.7 C123.1,59.6 123.6,55.4 124.9,51.4 C126,47.8 126.1,47.4 128.1,50.6 C132.3,57.3 134.4,66.4 135.8,74.1 C137.4,82.8 137.6,91.6 136.8,100.4 L148.8,100.4 C150.1,82.2 146.7,63.5 151.5,45.7 L139.9,45.7 C145.8,62.1 141.7,79.5 141.4,96.5 C141,114 147.3,131.8 143.5,149.2 C141.9,156.7 153.4,159.9 155.1,152.4 C159.1,133.7 153,115.3 153.4,96.5 C153.8,78.4 157.8,60.1 151.5,42.5 C149.6,37.2 141.6,36.4 139.9,42.5 C134.8,61.5 138.1,81.1 136.7,100.4 C136.2,108.2 148,108 148.7,100.4 C149.8,88.5 148.9,76.4 145.9,64.8 C143.7,56 140.4,42.6 131.9,37.7 C122.5,32.3 115,41.2 112.9,49.6 C109.7,62.2 107.8,75.2 105.3,87.9 C109,87.4 112.6,86.9 116.3,86.5 C115.5,85.1 116.7,82.6 117.1,81.2 C117.7,78.7 118.3,76.1 118.7,73.6 C119.4,68.8 119.9,64 119.6,59.1 C119.2,52.7 117.8,37.5 108.5,38.4 C106.1,38.6 103.1,40.1 102.7,42.8 C100.4,59.6 100.4,76.4 101.4,93.4 C101.9,101.8 102.6,110.1 103.2,118.5 C103.8,126.5 105,134.9 102.8,142.7 L114.4,142.7 C112,128.1 110.6,113.4 110.2,98.5 L98.2,98.5 C99.1,110.5 101,122.4 104,134 C107,145.5 112.9,156.9 113.6,168.9 C116.1,167 118.7,165 121.2,163.1 C106.4,161 91.7,160.7 76.9,162.4 C69.4,163.3 69,174.1 76.9,174.4 C80.1,174.5 83.3,174.5 86.6,174.3 C93.3,173.9 94.9,164.5 88.2,162.5 C85.3,161.7 83,160.3 80.8,158.3 C79.4,161.7 78,165.1 76.6,168.5 C92.7,167.1 94.1,149.2 95.2,136.5 C96.6,120.8 95.4,105 92.3,89.5 C88.4,90.6 84.6,91.6 80.7,92.7 C85.2,113.8 84.1,135.5 83,156.9 C82.6,164.7 94.4,164.5 95,156.9 C95.8,145.7 97,134.4 98.7,123.3 C94.8,122.8 90.8,122.2 86.9,121.7 C87.4,129.8 88.5,137.9 90,145.9 C91.2,152.1 99.8,151.1 101.6,145.9 C104.1,138.5 103.5,130.6 103.3,122.8 C103.1,114 102.8,105.1 102.6,96.3 C102.1,79 101,61.5 103.1,44.2 C99.2,44.7 95.2,45.3 91.3,45.8 C94.3,66.2 94.3,87 94.3,107.6 C94.3,114.3 104.5,115.9 106.1,109.2 C110,93.2 111.8,78 110,61.5 C109.2,53.9 107.6,46.5 106.2,39 C105.7,36.1 104.9,32.5 107.7,30.4 C110.2,28.5 113,29.6 114.9,31.7 C116.3,28.3 117.7,24.9 119.1,21.5 C112.6,21.1 106.1,20.6 99.5,20.2 C96.6,20 93.6,19.8 90.7,19.6 C90,19.6 82.9,19.7 82.5,19.1 C80.8,22.1 79,25.1 77.3,28.1 C81.7,27.9 85.8,28.3 90.1,29.3 C97.5,31 100.7,19.5 93.2,17.7 L93.2,17.7 Z" id="Shape" fill="#8AF9C3"></path>
                            <path d="M42.6,24.4 C34,48.5 35.2,74.3 34.2,99.5 C33.2,122.8 24.7,150 42.4,169.3 C45.9,173.2 54.1,171.6 54.9,166 C55.3,163.6 55.6,161.3 56,158.9 C56.6,155 55.1,150.7 50.8,149.7 C45.3,148.4 39.8,148.5 34.5,150.5 C31,151.8 27.7,155.7 29.3,159.7 C35.6,175.9 56.9,171.2 62.4,157 C65.6,148.8 64.1,139.7 63.9,131.1 C63.6,121 63.9,110.9 64.6,100.8 C66,80.3 69,59.9 72.1,39.6 C72.3,38.4 72.4,37.2 72.7,36 C73.1,33.8 74,33.9 70.8,34.3 C67.2,34.8 69.1,34.2 68.6,36.5 C68.5,37.2 68.5,38.1 68.5,38.9 C68.2,44.5 67.7,50.2 67.4,55.8 C66.7,66.1 66,76.4 65.3,86.7 C63.7,110.6 62.1,134.5 60.5,158.4 C62.3,156 64.2,153.6 66,151.2 C64,152 62.1,152.8 60.1,153.6 C55.9,155.3 52.7,160.1 55.6,164.6 C63.1,176.1 79.9,173.1 86.2,162 C89.9,155.6 89.9,147.8 89.7,140.7 C89.4,132.1 89.2,123.4 89.4,114.8 C89.8,97.4 91.4,80.1 94.3,62.9 C95.6,55.2 97.7,47.6 98.6,39.9 C99.4,33.4 98.3,26.2 92.8,21.8 C92.3,25.7 91.8,29.7 91.3,33.6 C94.3,32 96.6,37.4 97.1,39.4 C98.3,44.6 97.6,50.5 97.2,55.8 C96.3,68.8 94.3,81.8 92.7,94.7 C91.2,107.2 90.1,119.7 90.7,132.3 C91.2,142.7 92.7,154 86.6,163.1 C83.1,168.3 87.9,173.8 93.1,174.4 C105.9,175.8 116.7,165.7 120.8,154.3 C125.5,141.2 123.5,125.9 123.9,112.3 C124.4,97.1 125.4,82 127.1,66.9 C127.9,59.8 129.8,52.4 129.5,45.2 C129.4,42.1 128.6,39 127.1,36.4 C125.7,34.1 123.2,32.5 122.2,30.1 C122.5,31.4 122.9,32.6 123.2,33.9 C123.3,34.9 120.6,32.9 124,34.3 C125.6,34.9 127.2,35.3 128.8,35.9 C127,33.5 125.1,31.1 123.3,28.7 C121.9,73.7 121,118.6 120.6,163.6 C123.8,161.2 126.9,158.8 130.1,156.4 C125.5,155.1 121.1,155.6 117.1,158.2 C120.1,158.6 123.2,159 126.2,159.4 C125.4,158.7 124,156.9 123,156.5 C123.4,159.1 121.6,160.1 117.5,159.8 C117.6,160.1 117.7,160.3 117.8,160.6 C118,163.2 120.4,166.9 122.2,168.8 C126.7,173.4 133.7,173.7 139.1,170.5 C145,167 147,160.4 147.5,153.9 C148.1,145.9 147.8,137.8 147.8,129.8 C147.9,97.5 147.1,65.3 145.4,33.1 C142.2,35.5 139.1,37.9 135.9,40.3 C135.5,38.2 134.9,37.5 133.9,38.1 L148.4,38.1 C147.7,33.4 147.1,28.8 146.4,24.1 C141.6,25.4 136.8,26.8 131.9,28.1 C134.1,40.8 133.4,53.7 130.2,66.2 C127.8,75.6 142.3,79.5 144.7,70.2 C148.6,55 149.1,39.6 146.4,24.1 C145.7,20.1 140.8,17.8 137.2,18.9 C132.9,20.1 131.4,24.1 132,28.1 C132.7,32.8 133.3,37.4 134,42.1 C135.2,50.2 146.2,48.2 148.5,42.1 C151.1,35.1 146.6,28.3 140,25.9 C135.5,24.3 130.3,28.5 130.5,33.1 C132.3,67 133.1,100.9 132.9,134.8 C132.9,138.8 132.8,142.8 132.8,146.8 C132.8,150.4 132.2,153.7 131.9,157.2 C131.6,157.7 131.5,157.9 131.7,157.6 C130.6,158 131.1,158.4 133.4,158.7 C133.4,158.7 132.1,155.6 132,155.4 C130.7,152.3 129.1,149.4 126.2,147.4 C120,143.1 111.8,145.6 109.2,152.6 C106.6,159.6 110.4,165.8 115.8,170.1 C118.4,172.2 121.9,173.2 124.9,171.3 C125.4,170.6 125.9,170.5 126.4,171.1 C131.1,172.5 135.9,168.7 135.9,163.9 C136.3,118.9 137.1,73.9 138.6,29 C138.7,25.5 136.1,22.9 133.1,21.8 C126.1,19.1 118,18.1 112.3,23.9 C107.3,28.9 107.4,36.4 111.9,41.6 C114.1,44.2 115,44.4 114.9,48 C114.7,51.9 113.9,55.8 113.4,59.6 C112.4,67.6 111.5,75.6 110.9,83.7 C109.6,99.7 109.1,115.7 109,131.8 C109,141.8 108.1,161.5 93.5,159.9 C95.7,163.7 97.8,167.4 100,171.2 C107.9,159.5 106.7,145.4 106.1,132 C105.4,115.8 107.5,99.8 109.6,83.8 C111.6,69.1 114.8,52.9 112.4,38.1 C110.3,24.9 97.3,14.3 84.2,21.1 C80.2,23.1 79,29.9 82.7,32.9 C85.5,35.1 84.3,39.2 83.6,42.3 C82.2,48.9 80.9,55.6 79.8,62.3 C77.7,75.4 76.2,88.6 75.4,101.8 C74.6,114.7 74.6,127.6 75.1,140.5 C75.3,145 76.2,151.4 73.6,155.4 C72.9,156.5 71.8,157.3 70.4,157.6 C70.1,157.7 69.8,157.7 69.5,157.8 C68.3,158 68.7,157.3 69,157.7 C67.5,161.4 66,165 64.5,168.7 C66.5,167.9 68.4,167.1 70.4,166.3 C73.7,165 75.7,162.7 75.9,159.1 C77.3,137.9 78.7,116.6 80.2,95.4 C80.9,84.8 81.6,74.2 82.3,63.5 C82.6,58.5 83,53.5 83.3,48.6 C83.6,43.5 84.6,38 83.7,33 C81.7,23.7 72.2,17 64,22.4 C56.4,27.4 56.9,40.4 55.7,48.4 C52.7,69.1 49.9,89.8 49.1,110.7 C48.7,121.6 49.2,132.4 49.4,143.4 C49.4,146.5 49.7,151.6 47.3,154 C46.1,155.2 43.2,154.6 43.7,155.8 C42,158.9 40.2,162 38.5,165 C41.4,164 43.8,163.5 46.8,164.2 C45.1,161.1 43.3,158 41.6,155 C41.2,157.4 40.9,159.7 40.5,162.1 C44.7,161 48.9,159.9 53,158.8 C46.1,151.2 45.7,140.5 46.4,130.8 C47.2,119.1 48.9,107.7 49.3,96 C50.1,73.3 49.3,50.2 57.1,28.5 C60.4,19.3 45.9,15.4 42.6,24.4 L42.6,24.4 Z" id="Shape" fill="#8AF9C3"></path>
                            <path d="M13.6,176.2 C10.6,167.9 12,158.3 11.8,149.7 C11.6,139.8 11.5,130 11.4,120.1 C11.2,100.1 11,80 11,60 L11,30.4 C11,25.6 10.2,19.8 13.7,16.1 C17,12.7 23.6,12 28.1,11 C38.2,8.7 47.7,9.5 57.9,10.5 C67.7,11.4 77.6,11.8 87.5,11.9 C97.4,12 107.3,11.8 117.2,11.7 C126.8,11.6 136.8,10.8 146.4,12 C159.2,13.6 157.3,26.5 157.3,36.2 L157.3,66.1 L157.3,125.3 L157.3,155.1 C157.3,159.5 157.5,164 157.3,168.5 C157.1,171.7 156.4,174.8 153.3,176.4 C150.8,177.7 147.6,178 144.8,178.2 C134.2,179 123.3,177.4 112.7,177.3 C101.5,177.2 90.4,177.6 79.2,178 C68.4,178.4 57.5,178.8 46.7,179 C41.1,179.1 35.6,179 30,178.9 C25.3,178.8 15.1,180 11.5,176.5 C10.1,175.2 8,177.3 9.4,178.6 C11.6,180.7 14.2,181 17.2,181.2 C23.1,181.6 29,181.8 34.9,181.9 C46.1,182.1 57.2,181.7 68.4,181.3 C90.9,180.5 113.3,180 135.8,181.1 C142.5,181.4 153.5,182.2 158.2,176.1 C160,173.7 160.3,170.6 160.3,167.7 C160.4,161.8 160.3,155.9 160.3,150.1 L160.3,82 L160.3,48.1 L160.3,32.1 C160.3,27.9 160.6,23.4 159.5,19.3 C157.6,11.8 151.4,9.2 144.2,8.8 C133.3,8.1 122.2,8.6 111.2,8.7 C99.7,8.8 88.1,9 76.6,8.6 C65.5,8.2 54.4,6.4 43.2,6.2 C34.2,6 23.4,7.7 15.1,11.4 C7.4,15 8.1,23.1 8,30.4 C7.9,55.7 8,81 8.2,106.3 C8.3,118.8 8.5,131.3 8.7,143.8 C8.8,149.9 8.9,156 8.8,162.2 C8.7,167.3 8.9,172.3 10.6,177.1 C11.4,178.8 14.3,178.1 13.6,176.2 L13.6,176.2 Z" id="Shape" fill="#000000"></path>
                            <path d="M12.1,177.1 C0.6,173.7 3.9,154.6 3.8,145.5 C3.7,134.6 3.7,123.6 3.6,112.7 C3.5,90.5 3.3,68.3 3.3,46.1 C3.3,35.6 2.5,23.9 5.1,13.7 C8.2,1.8 22.1,3.7 31.8,3.7 C53.6,3.7 75.3,3.8 97.1,3.8 C109.3,3.8 121.6,3.3 133.8,4.2 C139.1,4.6 145.9,4.8 149.5,9.2 C152.1,12.3 153.9,16.1 156.5,19.2 C157.8,20.7 159.9,18.5 158.6,17.1 C156.1,14.2 154.4,10.6 151.9,7.6 C148.9,3.9 146.1,3 141.4,2.2 C130.1,0.1 118.3,0.9 106.9,0.9 C81.2,0.9 55.5,0.8 29.8,0.8 C21.9,0.8 11.3,-0.4 5.5,6.3 C-0.7,13.3 0.5,26.8 0.3,35.4 C-0.2,60.9 0.4,86.4 0.6,111.8 C0.7,126.4 0.8,141 0.8,155.5 C0.8,164.6 0.5,176.9 11.2,180.1 C13.1,180.5 13.9,177.6 12.1,177.1 L12.1,177.1 Z" id="Shape" fill="#000000"></path>
                        </g>
                    </g>
                </g>
                <path d="M35.7182639,102.951207 C35.7182639,124.894602 51.7708143,130 67.0870092,130 C75.8250947,130 89.3740363,128.183656 94.3321635,124.010975 C95.461242,123.078258 95.853965,122.04736 95.853965,120.231017 C95.853965,117.481956 94.0376213,115.32198 91.2394703,115.32198 C88.3431386,115.32198 87.8031446,117.580137 85.7413491,118.611035 C80.6850412,121.114643 71.1124194,121.850999 65.85975,121.850999 C55.3053208,121.850999 44.407259,114.978347 44.407259,103.34393 C44.407259,94.409483 49.070844,68.9806723 65.6142981,68.9806723 C71.5542327,68.9806723 80.0959568,72.7606306 80.0959568,77.2278541 C80.0959568,80.9096318 80.0959568,85.9659397 84.1213669,85.9659397 C87.6067831,85.9659397 88.4413194,81.744168 88.4413194,79.5351015 C88.4413194,67.2625094 76.3650888,60.6353097 65.1724848,60.6353097 C52.3598987,60.6353097 43.7199939,71.0424677 40.5782103,79.4369207 C37.9764208,86.4568434 35.7182639,95.7840133 35.7182639,102.951207 Z M110.629109,120.378288 C111.954548,126.318222 116.12723,129.460006 122.950791,129.312735 C126.730749,129.312735 132.17978,126.612765 132.17978,122.538264 C132.17978,120.574649 131.001611,118.414673 128.694364,118.414673 C126.583478,118.414673 125.847123,119.2983 125.061677,120.231017 C124.718044,120.62374 124.079869,121.163734 123.098062,121.163734 C121.870803,121.163734 120.447182,120.72192 120.054459,118.316492 C118.729019,111.002027 118.630839,103.834834 118.630839,96.7167303 L118.630839,60.6844001 C118.630839,58.8680564 117.010856,56.5117188 114.507248,56.5117188 C111.120012,56.5117188 109.990934,59.4571408 109.990934,63.7770932 L109.598211,89.4022655 C109.352759,98.3367125 110.383657,106.534804 110.383657,115.32198 C110.383657,117.040143 110.285476,118.856486 110.629109,120.378288 Z" fill="#18864C"></path>
            </g>
        </g>
    </g>
</svg>