<?xml version="1.0" encoding="UTF-8"?>
<svg width="164px" height="184px" viewBox="0 0 164 184" version="1.1" xmlns="http://www.w3.org/2000/svg" xmlns:xlink="http://www.w3.org/1999/xlink">
    <!-- Generator: Sketch 41.2 (35397) - http://www.bohemiancoding.com/sketch -->
    <title>He</title>
    <desc>Created with Sketch.</desc>
    <defs></defs>
    <g id="Page-1" stroke="none" stroke-width="1" fill="none" fill-rule="evenodd">
        <g id="Desktop" transform="translate(-42.000000, -740.000000)">
            <g id="He" transform="translate(42.000000, 740.000000)">
                <g id="Helium">
                    <g id="he">
                        <g id="Layer_3">
                            <path d="M17.5417722,0.98 C6.00987342,1.18 3.42531646,13.77 2.47037975,22.63 C1.43240506,32.5 2.82329114,42.47 2.69873418,52.36 C2.42886076,74.05 0.529367089,95.58 0.903037975,117.36 C1.08987342,128.15 1.34936709,138.93 1.58810127,149.72 C1.7956962,159.39 1.99291139,168.86 10.9298734,175.02 C19.3063291,180.8 29.4162025,179.68 39.0693671,181.07 C44.3318987,181.83 49.4491139,183 54.815443,183.4 C60.1665284,183.673034 65.5304005,183.609566 70.8729114,183.21 L139.732152,179.74 C149.457975,179.25 160.107595,178.74 162.76481,167.74 C163.730127,163.74 163.117722,159.74 162.463797,155.74 C161.571827,150.522373 160.982726,145.260862 160.699241,139.98 C159.661266,118.41 162.77519,96.88 163.377215,75.34 C163.695527,64.4066667 163.619409,53.47 163.148861,42.53 C162.920506,37.23 162.598734,31.9366667 162.183544,26.65 C161.799494,21.87 161.446582,17.13 158.509114,13.09 C152.592658,4.96 139.939747,4.41 130.660253,3.32 C118.464051,1.89 106.901013,4.5 94.7982278,5.42 C82.2075949,6.42 69.8868354,5.08 57.4311392,4.54 C44.975443,4 32.5716456,6.07 20.3650633,8.13 C10.5146835,9.79 14.6873418,24.24 24.516962,22.59 C33.7549367,21.04 43.0136709,19.51 52.4177215,19.48 C61.8217722,19.45 70.8936709,20.79 80.1627848,20.92 C98.6906329,21.18 116.689114,16.07 135.175443,19.04 C137.863797,19.47 142.503544,19.57 144.828608,21.1 C147.153671,22.63 146.655443,26.79 146.904557,29.66 C147.59654,39.2466667 147.980591,48.85 148.056709,58.47 C148.212405,77.1 146.676203,95.59 145.575949,114.17 C144.961003,123.08764 144.853585,132.031039 145.254177,140.96 C145.503291,145.44 145.980759,149.9 146.624304,154.35 C146.831899,155.8 149.011646,162.9 147.662278,164.35 C147.278228,164.77 140.396456,164.66 138.735696,164.75 L123.321772,165.53 L93.4592405,166.98 C84.0136709,167.46 74.5681013,168.04 65.1225316,168.38 C55.5005063,168.73 46.656962,166.65 37.1698734,165.71 C31.855443,165.18 21.0086076,166.46 18.0296203,160.71 C16.316962,157.42 17.2096203,152.13 17.136962,148.6 L16.8151899,133.69 C16.3688608,113.09 16.0886076,92.56 17.3653165,71.97 C18.1511165,61.6550857 18.3797795,51.3077886 18.0503797,40.97 C17.8324051,36.27 17.5521519,31.57 17.7389873,26.87 C17.8220253,24.76 17.915443,15.99 20.1678481,14.87 L16.2339241,15.87 L17.5417722,15.87 C27.5478481,15.71 27.5789873,0.71 17.5417722,0.87 L17.5417722,0.87 L17.5417722,0.98 Z" id="Shape" fill="#EF6767"></path>
                            <path d="M28.1913924,8.74 L27.7865823,8.08 L28.2536709,11.55 C26.2884388,12.95 26.5410127,13.4266667 29.0113924,12.98 L33.1632911,13.11 L41.4670886,13.37 L57.0367089,13.86 L89.1516456,14.86 L86.795443,6.47 C79.9800393,9.34341104 73.0045257,11.8505915 65.9010127,13.98 L69.5027848,22.2 C73.0111392,19.72 77.8065823,20.76 79.9863291,16.2 C82.4255696,11 78.1698734,6.72 73.5405063,4.69 L71.1843038,13.08 L100.413671,13.91 C106.423544,14.08 106.423544,5.08 100.413671,4.91 L71.1843038,4.08 C66.7729114,3.95 64.5205063,10.58 68.8281013,12.47 C70.0217722,12.99 71.423038,14.8 71.7032911,12.86 C71.9212658,11.32 71.2258228,12 69.8141772,12.37 C68.0065338,12.7337525 66.2874203,13.4261064 64.7488608,14.41 C60.7734177,17.22 62.9012658,24.26 68.3506329,22.63 C76.1919321,20.2646627 83.8915981,17.4837582 91.4144304,14.3 C95.9296203,12.4 93.2827848,6.05 89.0582278,5.91 L44.5498734,4.5 L34.1701266,4.17 C31.0562025,4.07 27.4336709,3.45 24.3612658,4.17 C22.3323133,4.54112676 20.6194715,5.84370972 19.7736213,7.65881474 C18.9277711,9.47391975 19.0555826,11.572644 20.1159494,13.28 C23.2298734,18.28 31.2741772,13.73 28.1810127,8.74 L28.1810127,8.74 L28.1913924,8.74 Z" id="Shape" fill="#EF6767"></path>
                            <path d="M64.1987342,10.98 L99.0020253,15.77 C110.035696,17.28 120.218228,19.12 128.221013,27.19 C132.372911,31.39 138.98481,25.02 134.822532,20.83 C126.715949,12.67 116.564557,9.26 105.229873,7.61 C92.4108861,5.75 79.5503797,4.09 66.7106329,2.34 C60.8356962,1.54 58.2926582,10.21 64.2298734,11.02 L64.2298734,11.02 L64.1987342,10.98 Z" id="Shape" fill="#EF6767"></path>
                            <path d="M143.873671,54.3 C143.518821,70.8002513 141.495586,87.2279065 137.832658,103.35 C136.555949,108.98 145.316456,111.35 146.842278,105.74 L147.215949,104.37 C148.731392,98.76 139.721772,96.37 138.206329,101.98 L137.832658,103.35 L146.842278,105.74 C150.694446,88.8298528 152.828899,71.5986006 153.215443,54.29 C153.34,48.5 143.998228,48.5 143.873671,54.29 L143.873671,54.29 L143.873671,54.3 Z" id="Shape" fill="#EF6767"></path>
                            <path d="M122.221519,50.32 C119.175233,63.871514 117.506592,77.6767228 117.239241,91.54 C117.125063,97.33 126.466835,97.33 126.581013,91.54 C126.799661,78.4867219 128.339699,65.4851332 131.179241,52.72 C132.44557,47.07 123.446329,44.66 122.16962,50.33 L122.16962,50.33 L122.221519,50.32 Z" id="Shape" fill="#EF6767"></path>
                            <path d="M9.61164557,160.7 C7.25544304,166.04 7.85746835,170.79 11.6875949,175.29 C14.1372152,178.15 20.1470886,175.92 19.6592405,172.11 C19.0675949,167.5 17.0124051,163.83 12.4972152,161.8 C11.0462881,161.031607 9.28449004,161.047661 7.84890938,161.842359 C6.41332872,162.637056 5.51172389,164.095387 5.47012658,165.69 C5.00303797,170.33 7.23468354,173.86 11.0129114,176.53 C13.7531646,178.46 18.3929114,175.89 18.04,172.64 C17.6144304,168.64 15.9640506,165.64 12.2688608,163.72 C9.77772152,162.4 6.04101266,163.48 5.4078481,166.41 C4.15189873,172.26 6.97518987,176.94 12.6736709,179.05 C16.2858228,180.38 19.0260759,176.54 18.4240506,173.51 C17.6208465,169.503481 15.0990787,166.009929 11.48,163.89 C8.0443038,161.7 3.51873418,165.32 4.61898734,168.97 C5.53367489,172.325036 7.84787162,175.16624 11.0129114,176.82 C14.2617722,178.59 19.4205063,175.58 17.8739241,171.74 C16.7039115,168.627008 14.8321789,165.802592 12.3934177,163.47 C11.0405536,162.233455 9.05909938,161.879645 7.3361222,162.566965 C5.61314503,163.254284 4.47129931,164.854022 4.42177215,166.65 C4.31797468,172.98 8.85392405,178.16 14.9260759,180.1 C21.9116456,182.31 28.8972152,179.69 35.5298734,177.65 C52.8744304,172.32 71.0182278,172.21 89.0167089,171.15 C97.7668354,170.64 106.402785,168.96 115.132152,168.49 C123.861519,168.02 132.538987,169.82 141.081519,168.49 C146.468608,167.66 151.7,162.49 148.482278,157.05 C146.831899,154.26 143.551899,153.51 140.583291,152.73 C135.995443,151.52 131.386835,150.37 126.788608,149.19 C121.837468,147.92 118.297975,155.13 123.186835,157.41 L131.968101,161.51 C137.35519,164.03 142.098734,156.27 136.680506,153.74 L127.899241,149.64 L124.297468,157.86 L134.147848,160.39 C135.428908,160.83637 136.748973,161.171046 138.092152,161.39 C140.112743,162.423333 140.583291,162.226667 139.503797,160.8 C139.40692,159.76 138.891392,159.426667 137.957215,159.8 C135.517975,159.04 130.691392,159.8 128.034177,159.72 C125.05519,159.59 122.076203,159.42 119.097215,159.42 C112.506076,159.42 106.081013,160.61 99.5521519,161.33 C93.5007595,162 87.4078481,162.28 81.3253165,162.56 C69.2536709,163.13 57.1301266,163.75 45.2453165,165.98 C39.4226168,167.227196 33.6713543,168.76595 28.0149367,170.59 C23.8007595,171.83 13.5767089,173.79 13.7635443,166.69 L5.79189873,169.87 C7.14932016,171.062024 8.21320148,172.531131 8.90582278,174.17 L15.7668354,169.09 C14.6312058,168.731165 13.8190007,167.76479 13.6908861,166.62 L6.82987342,171.7 C8.3371749,172.650471 9.31179781,174.211732 9.47670886,175.94 L15.2270886,170.4 L14.4589873,168.83 L7.59797468,171.52 L8.73974684,172.67 L15.7668354,168.78 C14.8080242,168.052876 14.4400359,166.816066 14.8534177,165.71 L7.82632911,169.6 C9.12844748,169.867889 10.1332729,170.867563 10.3693671,172.13 L18.3410127,168.95 C17.3765664,167.956731 17.1193494,166.505292 17.6870886,165.26 C20.0121519,159.99 11.9678481,155.4 9.62202532,160.72 L9.62202532,160.72 L9.61164557,160.7 Z" id="Shape" fill="#EF6767"></path>
                            <path d="M33.4643038,15.07 C18.5382278,16.31 17.2822785,34.31 16.358481,45.55 C15.2167089,59.43 16.0574684,73.33 14.2202532,87.18 C10.701519,113.67 4.03772152,141.26 18.3721519,166.03 C21.0708861,170.72 29.2293671,171.12 31.8658228,166.03 C37.2736709,155.4 33.495443,142.56 32.8,131.25 C31.9862944,118.096881 31.9100654,104.911036 32.5716456,91.75 C33.0826173,79.0940808 34.3998646,66.4803386 36.5159494,53.98 C37.8549367,46.53 39.6298734,30.49 48.5149367,27.1 L38.9344304,21.86 C42.1210127,31.45 36.7027848,40.86 33.9002532,49.86 C30.9731646,59.31 30.34,69.29 30.1324051,79.09 C29.9040506,89.75 29.5096203,100.3 28.5235443,110.92 C27.5893671,120.92 26.5617722,131.01 26.9562025,141.09 C27.2883544,149.39 27.1741772,163.63 35.4364557,168.73 C39.6536588,171.179548 45.0258548,170.748244 48.7640506,167.66 C52.7083544,164.57 53.7982278,160.04 53.9539241,155.35 C54.5248101,134.59 53.5698734,113.82 54.4832911,93.05 C54.9918987,81.48 55.8637975,69.89 57.4934177,58.41 C58.2891983,52.8166667 59.2752743,47.25 60.4516456,41.71 C61.1055696,38.63 61.8113924,35.56 62.5898734,32.51 C62.9359102,31.5297686 63.2099203,30.5272927 63.4098734,29.51 C63.5551899,27.87 64.3648101,28.71 63.0362025,28.96 L58.8843038,28.96 L59.5589873,29.2 L54.9088608,25.75 C55.6562025,27.39 55.3240506,30.46 55.4174684,32.25 C55.5420253,34.71 55.5524051,37.18 55.4174684,39.64 C55.207035,44.8713588 54.6837194,50.0866786 53.8501266,55.26 C52.2516456,65.58 50.2172152,75.84 49.1065823,86.26 C46.864557,107.26 47.7156962,128.36 48.5564557,149.37 C48.8782278,157.25 47.3627848,173.37 59.2787342,173.77 C69.2225316,174.11 72.5751899,164 73.8622785,156.4 C77.3083544,136.06 73.3640506,115.28 73.4367089,94.82 C73.490286,83.2593292 74.1832516,71.7096215 75.5126582,60.22 C76.2046414,54.1866667 77.0938397,48.1866667 78.1802532,42.22 C78.7926582,38.84 78.8860759,33.22 82.4774684,31.56 L71.0805063,26.98 C74.3086076,36.32 73.5820253,46.53 73.3951899,56.24 C73.1875949,66.69 72.6582278,77.13 72.1807595,87.58 C71.2465823,108.07 71.5579747,128.18 72.6582278,148.65 C73.0941772,156.71 68.5063291,170.65 81.2111392,172.04 C91.4351899,173.12 94.175443,160.83 95.4002532,153.53 C96.9779747,144.1 96.6873418,134.64 96.2825316,125.14 C95.8327426,114.533333 95.4867511,103.923333 95.244557,93.31 C94.9746835,81.78 94.6425316,70.23 94.995443,58.7 C95.161519,53.42 95.4832911,48.14 96.1372152,42.89 C96.4832068,40.1766667 96.9399156,37.4766667 97.5073418,34.79 C97.7633755,33.5766667 98.0367089,32.3666667 98.3273418,31.16 L98.7944304,29.35 C99.6870886,27.05 99.4552743,26.95 98.0989873,29.05 L92.0994937,29.81 C89.2346835,29.24 90.895443,28.04 91.1237975,29.98 C91.3902648,31.0526361 91.71596,32.1108075 92.0994937,33.15 C92.5814735,35.2094756 92.8526447,37.3095267 92.9091139,39.42 C92.9923201,43.9490596 92.819067,48.4791206 92.3901266,52.99 C91.635865,63.5633333 91.1480169,74.15 90.9265823,84.75 C90.4698734,105.96 90.9265823,127.17 91.4455696,148.37 C91.6427848,156.04 91.061519,169.08 102.48962,169.29 C112.225823,169.47 115.983291,158.29 117.125063,150.84 C120.093671,130.69 115.952152,109.71 113.409114,89.72 C111.891423,78.979132 111.056028,68.1589909 110.907595,57.32 C110.879557,51.8638976 111.226307,46.4119872 111.94557,41 C112.319241,38.33 112.827848,35.67 113.450633,33 C113.730886,31.82 114.031899,30.64 114.353671,29.46 L114.862278,27.7 C115.60962,25.9933333 115.132152,26.0133333 113.429873,27.76 L107.305823,27.09 C106.025654,25.87 105.679662,25.87 106.267848,27.09 C106.510042,27.97 106.738397,28.8566667 106.952911,29.75 C107.305823,31.23 107.617215,32.75 107.897468,34.21 C108.499494,37.43 108.935443,40.67 109.174177,43.94 C109.713924,50.34 109.776203,56.76 109.682785,63.17 C109.48557,76.41 108.551392,89.65 109.07038,102.89 C109.578987,115.97 110.616962,128.89 110.502785,142.02 C110.419747,151.9 111.654937,170.69 126.321519,169.85 C129.784661,169.737511 132.795132,167.527161 133.826076,164.34 C137.977975,153.65 134.781013,141.46 133.130633,130.57 C131.231139,118.06 129.092911,105.57 127.473671,93.02 C125.906329,80.89 124.556962,68.56 124.785316,56.32 C124.951392,45.91 127.11038,35.28 135.331139,27.88 L122.314937,24.57 C126.466835,48.15 125.293924,72.19 125.366582,95.99 C125.298271,107.589837 125.852598,119.185319 127.027342,130.73 C127.681266,136.67 128.542785,142.59 129.736456,148.45 C130.898987,154.15 131.677468,160.13 137.261772,163.36 C142.846076,166.59 148.253924,162.25 148.980506,156.88 C152.09443,133.69 146.759241,110.74 145.492911,87.62 C144.7056,76.5689787 145.657458,65.4667927 148.316203,54.69 C151.212152,43.59 154.637468,31.86 149.956203,20.69 C148.378481,16.95 144.766329,14.27 140.375696,15.45 C136.690886,16.45 133.348608,20.89 134.936709,24.68 C139.275443,35 134.241266,45.61 132.02,55.86 C129.801288,66.9003603 129.127533,78.1772932 130.016709,89.39 C131.459494,111.89 136.441772,134.25 133.390127,156.83 L145.108861,150.35 C146.842278,151.35 146.240253,152.3 145.97038,149.91 C145.804304,148.41 145.243797,146.82 144.932405,145.33 C144.351139,142.576667 143.845992,139.81 143.416962,137.03 C142.617722,131.83 142.119494,126.58 141.756203,121.34 C140.977722,110.05 140.946582,98.74 140.988101,87.43 C141.081519,65.03 141.247595,42.69 137.36557,20.53 C136.327595,14.66 128.252152,13.71 124.349367,17.22 C105.229873,34.44 108.447595,62.71 110.959494,85.34 C112.391899,98.28 114.436709,111.14 116.460759,124.01 C117.498734,130.42 118.536709,136.84 119.377468,143.27 C120.187089,149.09 120.986329,154.79 118.806582,160.41 L126.311139,154.9 C130.058228,154.69 126.882025,156.15 127.349114,154.95 C127.50481,154.54 126.830127,153.06 126.736709,152.63 C126.292666,150.341157 126.063387,148.018451 126.051646,145.69 C125.927089,140.81 126.238481,135.94 126.155443,131.06 C125.968608,120.74 124.785316,110.46 124.525823,100.15 C124.006835,80.23 126.601772,60.24 124.370127,40.36 C123.886664,35.7713165 123.145153,31.211282 122.148861,26.7 C121.110886,22 120.072911,16.46 115.19443,14.15 C103.890886,8.82 99.5417722,23.37 97.9329114,30.89 C93.7083544,50.69 95.3587342,70.89 97.9329114,90.75 C99.4275949,102.37 101.140253,113.97 101.918734,125.65 C102.330352,131.474507 102.430822,137.315552 102.219747,143.15 C102.09519,146.24 101.68,154.15 99.6559494,155.24 L103.589873,154.24 L107.222785,156.79 L107.222785,156.4 C107.309392,155.066303 107.27466,153.727862 107.118987,152.4 C107.049789,149.733333 106.984051,147.066667 106.921772,144.4 C106.790295,139.066667 106.672658,133.763333 106.568861,128.49 C106.371646,118.22 106.267848,107.94 106.330127,97.67 C106.392405,87.07 106.641519,76.47 107.181266,65.88 C107.648354,56.57 109.101519,47.05 108.406076,37.73 C107.82481,29.94 105.811139,17.27 96.2617722,15.34 C84.7713924,13.02 82.9134177,27.87 81.6678481,35.34 C78.3670886,55.12 79.2389873,75.34 79.7475949,95.26 C80.0382278,106.98 80.5675949,118.68 80.9827848,130.39 C81.2187987,135.388565 81.1772203,140.395713 80.8582278,145.39 C80.6841357,147.918756 80.3198889,150.432017 79.7683544,152.91 C79.5054008,154.043333 79.211308,155.17 78.8860759,156.29 L78.2425316,158.05 C77.5505485,159.656667 78.1767932,159.466667 80.1212658,157.48 L84.2731646,157.48 C87.0860759,158.26 87.2002532,162.91 87.8853165,157.77 C88.0513924,156.54 88.1863291,155.33 88.2486076,154.09 C88.3385436,151.384501 88.2588204,148.676239 88.0098734,145.98 C87.5739241,140.22 87.1275949,134.48 86.9718987,128.71 C86.6189873,116.64 86.9718987,104.57 87.5116456,92.52 C88.0202532,80.77 88.6637975,69.03 88.9232911,57.27 C89.1620253,45.94 89.8470886,33.94 86.0792405,23.04 C84.4081013,18.22 79.3012658,16.34 74.661519,18.56 C63.835443,23.69 63.14,37.64 61.6349367,47.68 C59.6599313,60.7331709 58.4642938,73.884803 58.0539241,87.07 C57.6906329,99.77 58.3549367,112.39 59.1749367,125.07 C59.6818016,131.494332 59.837713,137.939895 59.6420253,144.38 C59.5400277,147.358546 59.2418754,150.32785 58.7493671,153.27 C58.5210127,154.58 57.6491139,156.42 57.7840506,157.75 L57.483038,158.98 C56.6803376,160.453333 57.7183122,160.37 60.596962,158.73 L65.2470886,162.18 C64.2091139,160.79 64.6346835,157.68 64.5205063,156.01 C64.3544304,153.48 64.2506329,150.94 64.1468354,148.41 C63.9461603,143.236667 63.7662447,138.063333 63.6070886,132.89 C63.2956962,122.19 63.1607595,111.48 63.6070886,100.79 C64.5412658,80.23 70.3020253,60.2 71.0078481,39.68 C71.256962,32.35 72.6167089,16.86 62.9531646,14.54 C52.9263291,12.14 48.7848101,23.34 47.0410127,30.43 C42.1521519,50.34 39.8997468,70.82 38.9240506,91.23 C38.3843038,102.59 38.2286076,113.96 38.2182278,125.33 L38.2182278,142.39 L38.2182278,150.91 L38.2182278,154.69 L38.2182278,156.14 C37.8376371,157.773333 38.5538397,157.516667 40.3668354,155.37 L44.3007595,156.37 C44.7505485,157.316667 44.8232068,157.35 44.5187342,156.47 C44.3595781,155.956667 44.2281013,155.44 44.1243038,154.92 C43.7610127,153.4 43.4496203,151.86 43.2108861,150.31 C42.7644196,147.273547 42.4941262,144.215462 42.4012658,141.15 C42.2231911,135.1894 42.3825838,129.223879 42.8787342,123.28 C43.7921519,111.03 45.2349367,98.86 45.4529114,86.57 C45.6605063,74.96 45.6189873,63.43 49.3141772,52.25 C53.0093671,41.07 57.7840506,29.84 53.8086076,17.89 C52.6356962,14.35 48.2762025,11.1 44.2281013,12.65 C32.7273418,17.1 27.3194937,27.26 24.1225316,38.41 C20.4273418,51.31 19.0260759,65 17.8946835,78.3 C16.6741157,92.0665829 16.2617288,105.888602 16.6594937,119.7 C16.8601688,126.766667 17.2788186,133.823333 17.915443,140.87 C18.3617722,145.87 20.7802532,153.74 18.3825316,158.46 L31.8762025,158.46 C20.6141772,138.95 25.7002532,115.69 28.8141772,94.8 C30.4682059,83.3501643 31.355778,71.8096549 31.4713924,60.25 C31.5544304,54.74 31.6582278,49.25 32.1979747,43.73 C32.4839518,40.7634592 32.9658565,37.8174899 33.6407595,34.91 C34.0195498,33.744083 34.3314143,32.5589557 34.5749367,31.36 C34.8240506,29.1 36.5055696,29.82 33.536962,30.07 C43.4496203,29.25 43.5326582,14.24 33.536962,15.07 L33.536962,15.07 L33.4643038,15.07 Z" id="Shape" fill="#EF6767"></path>
                            <path d="M13.815443,176.48 C10.7637975,168.22 12.1546835,158.6 11.9989873,149.96 C11.8190717,139.993333 11.6668354,130.026667 11.5422785,120.06 C11.2931646,100.126667 11.1547679,80.1933333 11.1270886,60.26 L11.1270886,30.36 C11.1270886,25.43 10.2759494,18.95 15.2063291,15.85 C19.0468354,13.44 25.0774684,12.74 29.4888608,11.85 C39.8686076,9.65 49.5944304,10.69 60.0053165,11.62 C70.0632911,12.52 80.1524051,12.84 90.2518987,12.91 C100.351392,12.98 110.471646,12.8 120.581519,12.69 C130.255443,12.59 141.226835,11.33 150.755443,13.19 C162.287342,15.45 160.543544,27.38 160.543544,36.1 L160.543544,65.87 L160.543544,124.87 L160.543544,154.48 C160.543544,159.01 160.626582,163.54 160.543544,168.07 C160.543544,170.56 160.31519,173.45 158.374177,175.37 C156.21519,177.5 152.281266,177.99 149.395696,178.31 C138.694177,179.52 127.49443,177.73 116.741013,177.61 C105.136456,177.48 93.5422785,177.83 81.9481013,178.24 C70.3539241,178.65 58.7597468,179.12 47.1448101,179.24 C41.695443,179.3 36.2356962,179.24 30.7863291,179.14 C27.7208439,179.06 24.6553586,178.94 21.5898734,178.78 C18.4759494,178.61 14.1268354,179.05 11.6772152,176.78 C10.2344304,175.44 8.0235443,177.56 9.47670886,178.9 C11.7706329,181.03 14.4278481,181.32 17.5106329,181.54 C23.2817722,181.96 29.0840506,182.14 34.8759494,182.23 C46.8126582,182.41 58.7493671,182.07 70.6860759,181.65 C93.7187342,180.84 116.502278,180.54 139.534937,181.52 C146.240253,181.81 157.325823,182.39 161.737215,176.18 C163.57443,173.6 163.647089,170.38 163.678228,167.37 C163.750886,161.43 163.678228,155.48 163.678228,149.53 L163.678228,82.76 L163.678228,32.1 C163.678228,28.2 163.875443,24.1 162.868608,20.3 C160.896456,12.9 154.647848,10.22 147.236709,9.79 C136.047342,9.14 124.723038,9.6 113.523291,9.74 C102.10557,9.88 90.6151899,10.02 79.1663291,9.68 C67.4372152,9.33 55.7703797,7.48 44.0724051,7.27 C34.7929114,7.11 23.8734177,8.86 15.3620253,12.47 C7.63949367,15.75 8.09620253,23.35 8.03392405,30.37 C7.93012658,55.6166667 8.00278481,80.8633333 8.25189873,106.11 C8.38337553,119.063333 8.55983122,132.016667 8.78126582,144.97 C8.95772152,155.32 7.14126582,167.37 10.8053165,177.27 C11.4696203,179.08 14.4797468,178.27 13.8050633,176.47 L13.8050633,176.47 L13.815443,176.48 Z" id="Shape" fill="#000000"></path>
                            <path d="M12.1962025,177.32 C0.415189873,173.93 3.80936709,154.81 3.75746835,145.85 L3.59139241,114.17 C3.47375527,92.3966667 3.35611814,70.6233333 3.23848101,48.85 C3.23848101,37.95 2.40810127,26.06 4.92,15.35 C7.78481013,3.12 21.2888608,4.67 31.4817722,4.69 L99.5521519,4.81 C111.831392,4.81 124.276709,4.29 136.53519,5.19 C141.994937,5.59 148.866329,5.84 152.571899,10.19 C155.239494,13.32 157.066329,17.02 159.775443,20.12 C161.062532,21.6 163.263038,19.47 161.975949,18 C159.412152,15.07 157.668354,11.56 155.177215,8.57 C152.364304,5.18 149.769367,4.18 145.357975,3.32 C133.452405,1 120.913671,1.84 108.842025,1.82 L30.4956962,1.69 C22.2853165,1.69 11.3346835,0.52 5.38708861,7.31 C2.76101266,10.31 1.92025316,14.18 1.39088608,17.96 C0.612493965,24.3058818 0.217398064,30.6899688 0.207594937,37.08 C-0.217974684,62.08 0.373670886,87.17 0.508607595,112.19 L0.747341772,155.75 C0.747341772,164.8 0.342531646,177.03 11.4177215,180.22 C13.3379747,180.77 14.1683544,177.88 12.2481013,177.33 L12.2481013,177.33 L12.1962025,177.32 Z" id="Shape" fill="#000000"></path>
                            <path d="M26.6136709,24.77 C20.1574684,20.49 18.8807595,27.52 18.3098734,32.42 L21.4237975,32.42 C21.3453433,28.8078084 20.7622972,25.2222492 19.6903797,21.76 C19.4899976,21.1234908 18.8809059,20.6882636 18.1905063,20.6882636 C17.5001067,20.6882636 16.8910151,21.1234908 16.6906329,21.76 C15.2650956,26.0922124 15.2036935,30.7341964 16.5141772,35.1 C16.7426532,35.8022832 17.4633785,36.2435785 18.2203705,36.1446907 C18.9773626,36.0458029 19.5500893,35.4355408 19.5762025,34.7 C19.8772152,30.56 19.9810127,26.42 19.8772152,22.27 L16.8151899,22.67 C17.3397353,25.1273992 17.5937148,27.6312568 17.5729114,30.14 L20.6868354,30.14 C20.5785687,27.4709883 20.6618048,24.7979591 20.9359494,22.14 L17.8739241,22.54 C18.9174383,24.9711196 19.3306959,27.610503 19.0779747,30.23 L22.1918987,30.23 L22.2853165,21.77 L19.2232911,22.17 L20.3339241,26.17 C20.4864351,26.6817089 20.9073758,27.0782305 21.4418119,27.2136182 C21.976248,27.3490059 22.5451943,27.2032506 22.9392405,26.83 C23.8529831,25.8705506 24.2110098,24.5358286 23.8941772,23.27 C23.7488608,21.83 22.5863291,21.63 22.9288608,19.74 C23.4167089,17.06 26.976962,16.38 29.1567089,15.91 C31.1081013,15.49 30.2881013,12.59 28.3263291,13.02 C25.4511392,13.64 22.5240506,14.57 20.8425316,17.02 C20.136529,18.014981 19.7436711,19.1851595 19.7111392,20.39 C19.7111392,21.24 21.195443,24.14 20.7491139,24.67 L23.3544304,25.33 L22.2437975,21.33 C22.0153215,20.6277168 21.2945962,20.1864215 20.5376041,20.2853093 C19.7806121,20.3841971 19.2078854,20.9944592 19.1817722,21.73 L19.0779747,30.23 C19.0779747,32.23 22.0362025,32.13 22.1918987,30.23 C22.4693596,27.3279207 21.9987214,24.4047369 20.8217722,21.72 C20.5932962,21.0177168 19.8725709,20.5764215 19.1155788,20.6753093 C18.3585868,20.7741971 17.7858601,21.3844592 17.7597468,22.12 C17.4856023,24.7779591 17.4023662,27.4509883 17.5106329,30.12 C17.5106329,30.9484271 18.2077086,31.62 19.0675949,31.62 C19.9274813,31.62 20.624557,30.9484271 20.624557,30.12 C20.6397531,27.3418294 20.3509852,24.5698521 19.763038,21.85 C19.4101266,20.19 16.6491139,20.57 16.7010127,22.25 C16.8048101,26.4 16.7010127,30.54 16.4,34.68 L19.4620253,34.28 C18.2852914,30.4363743 18.3468205,26.3392193 19.638481,22.53 L16.6698734,22.53 C17.6662446,25.7318138 18.2108783,29.0482378 18.2891139,32.39 C18.2891139,34.39 21.1746835,34.27 21.403038,32.39 C21.6313924,30.51 21.8286076,25.2 25.0463291,27.33 C26.6967089,28.43 28.2640506,25.83 26.6136709,24.74 L26.6136709,24.74 L26.6136709,24.77 Z" id="Shape" fill="#EF6767"></path>
                        </g>
                    </g>
                    <path d="M13.6001904,22.0045554 C13.5413613,17.5837615 17.0837782,13.9990986 20.7594937,14 C20.7594937,14 20.5892479,13.9976056 20.7594937,14 C20.9297395,14.0023944 147.693919,15.8813848 147.693919,15.8813848 C152.113458,15.9468942 155.696203,19.5800004 155.696203,24.0090729 L155.696203,161.990927 C155.696203,166.414216 152.109308,170 147.69734,170 L23.5684832,170 C19.1508332,170 15.5218621,166.411153 15.4631007,161.995445 L13.6001904,22.0045554 Z" id="Rectangle-7" fill="#EF6767"></path>
                    <path d="M21.7974684,14 C21.7974684,14 21.8088525,13.8328968 20.7594937,14 C19.7101348,14.1671032 18.1489919,14.7574978 17.6455696,15 C17.1777781,15.2253386 15.9753584,15.5513266 15.5696203,16 C15.1638821,16.4486734 14.5316456,17 14.5316456,17 C14.5316456,17 15.3316626,17.0982508 15.5696203,17 C15.8075779,16.9017492 21.7974684,14 21.7974684,14 Z" id="Path-11" fill="#EF6767"></path>
                    <path d="M21.7974684,8 C21.7974684,8 17.5310999,9.40685455 16.6075949,10 C15.68409,10.5931454 14.5316456,12 14.5316456,12 C14.5316456,12 11.8451364,13.0951042 12.4556962,13 C13.066256,12.9048958 17.8803136,11.4421967 18.6835443,11 C20.0066924,10.271577 21.7974684,8 21.7974684,8 Z" id="Path-11" stroke="#EF6767" fill="#EF6767"></path>
                </g>
                <path d="M32.7435834,118.513048 C32.7435834,120.863098 35.1840198,122.12851 36.8109774,122.12851 C38.4831283,122.12851 41.4658839,120.637132 41.4658839,118.919788 C41.4658839,111.643672 40.7427916,103.915623 40.7427916,97.1818263 C40.7427916,96.5039273 41.149531,95.7356418 41.4658839,95.7356418 C66.7741133,95.7356418 71.9261457,95.5548687 73.0107841,95.5548687 L73.2819437,115.891839 C73.2819437,120.953485 74.6377417,122.580442 77.4849175,122.580442 C80.1513203,122.580442 81.8234711,120.501552 81.8234711,118.106309 C81.8234711,115.937032 81.6426981,110.333067 80.9196058,94.425037 C81.0099923,93.9731044 81.1003789,93.5211717 81.2359587,93.1144323 C81.3715385,92.39134 81.5523115,91.4874747 81.5523115,90.9451555 C81.5523115,89.8153238 80.8292193,87.9172066 80.4676731,87.1941143 C80.106127,78.0198812 79.8349674,72.1447565 79.8349674,68.0321692 C79.8349674,64.4167079 79.3830347,60.4848937 75.541607,60.4848937 C72.5136582,60.4848937 71.6549861,63.1061031 71.6549861,66.2696318 C71.6549861,73.3649747 72.1069188,80.2795445 72.2424986,87.3748874 C71.6549861,87.7816268 71.7001794,87.5556605 41.2851108,87.5556605 C40.7879849,87.5556605 40.5620185,87.2845009 40.5620185,86.6969884 L40.3812455,66.3600183 C40.3812455,63.8743887 37.8504225,60.9368263 36.0878851,60.9368263 C32.6080036,60.9368263 32.2464574,64.2811281 32.2464574,66.4504049 C32.2464574,92.3461468 32.7435834,100.887674 32.7435834,118.513048 Z M86.9710536,100.887674 C86.9710536,113.541789 99.399202,123.439114 112.008123,123.439114 C116.708223,123.439114 137,122.987182 137,116.931284 C137,113.858142 135.599009,112.45715 132.390287,112.45715 C130.446976,112.45715 123.487213,116.253385 116.572643,116.253385 C110.110006,116.253385 97.9982107,115.485099 95.6481609,104.457942 L125.882456,95.0577428 C128.774825,94.1538774 131.079682,93.9279111 132.842219,93.4307852 C134.830723,92.9336592 136.141328,91.9394074 136.141328,89.2278114 C136.141328,78.7429735 124.707431,72.7774622 115.307232,72.7774622 C97.0491521,72.7774622 86.9710536,83.7594261 86.9710536,100.887674 Z M95.4221945,97.3625994 C97.0491521,84.1661655 108.889788,80.2343513 113.951434,80.2343513 C121.453516,80.2343513 126.560355,82.222855 127.87096,86.7873749 C121.22755,89.8605171 103.873335,94.8317764 95.4221945,97.3625994 Z" fill="#820F0F"></path>
            </g>
        </g>
    </g>
</svg>