<?xml version="1.0" encoding="UTF-8"?>
<svg width="158px" height="184px" viewBox="0 0 158 184" version="1.1" xmlns="http://www.w3.org/2000/svg" xmlns:xlink="http://www.w3.org/1999/xlink">
    <!-- Generator: Sketch 41.2 (35397) - http://www.bohemiancoding.com/sketch -->
    <title>Helium</title>
    <desc>Created with Sketch.</desc>
    <defs></defs>
    <g id="Page-1" stroke="none" stroke-width="1" fill="none" fill-rule="evenodd">
        <g id="Desktop-HD" transform="translate(-1255.000000, -237.000000)">
            <g id="Helium" transform="translate(1255.000000, 237.000000)">
                <g id="he">
                    <g id="Layer_3">
                        <path d="M16.9,0.98 C5.79,1.18 3.3,13.77 2.38,22.63 C1.38,32.5 2.72,42.47 2.6,52.36 C2.34,74.05 0.51,95.58 0.87,117.36 C1.05,128.15 1.3,138.93 1.53,149.72 C1.73,159.39 1.92,168.86 10.53,175.02 C18.6,180.8 28.34,179.68 37.64,181.07 C42.71,181.83 47.64,183 52.81,183.4 C57.965314,183.673034 63.1329468,183.609566 68.28,183.21 L134.62,179.74 C143.99,179.25 154.25,178.74 156.81,167.74 C157.74,163.74 157.15,159.74 156.52,155.74 C155.660662,150.522373 155.093114,145.260862 154.82,139.98 C153.82,118.41 156.82,96.88 157.4,75.34 C157.706667,64.4066667 157.633333,53.47 157.18,42.53 C156.96,37.23 156.65,31.9366667 156.25,26.65 C155.88,21.87 155.54,17.13 152.71,13.09 C147.01,4.96 134.82,4.41 125.88,3.32 C114.13,1.89 102.99,4.5 91.33,5.42 C79.2,6.42 67.33,5.08 55.33,4.54 C43.33,4 31.38,6.07 19.62,8.13 C10.13,9.79 14.15,24.24 23.62,22.59 C32.52,21.04 41.44,19.51 50.5,19.48 C59.56,19.45 68.3,20.79 77.23,20.92 C95.08,21.18 112.42,16.07 130.23,19.04 C132.82,19.47 137.29,19.57 139.53,21.1 C141.77,22.63 141.29,26.79 141.53,29.66 C142.196667,39.2466667 142.566667,48.85 142.64,58.47 C142.79,77.1 141.31,95.59 140.25,114.17 C139.657552,123.08764 139.554064,132.031039 139.94,140.96 C140.18,145.44 140.64,149.9 141.26,154.35 C141.46,155.8 143.56,162.9 142.26,164.35 C141.89,164.77 135.26,164.66 133.66,164.75 L118.81,165.53 L90.04,166.98 C80.94,167.46 71.84,168.04 62.74,168.38 C53.47,168.73 44.95,166.65 35.81,165.71 C30.69,165.18 20.24,166.46 17.37,160.71 C15.72,157.42 16.58,152.13 16.51,148.6 L16.2,133.69 C15.77,113.09 15.5,92.56 16.73,71.97 C17.4870513,61.6550857 17.7073486,51.3077886 17.39,40.97 C17.18,36.27 16.91,31.57 17.09,26.87 C17.17,24.76 17.26,15.99 19.43,14.87 L15.64,15.87 L16.9,15.87 C26.54,15.71 26.57,0.71 16.9,0.87 L16.9,0.87 L16.9,0.98 Z" id="Shape" fill="#EF6767"></path>
                        <path d="M27.16,8.74 L26.77,8.08 L27.22,11.55 C25.3266667,12.95 25.57,13.4266667 27.95,12.98 L31.95,13.11 L39.95,13.37 L54.95,13.86 L85.89,14.86 L83.62,6.47 C77.0539403,9.34341104 70.3336284,11.8505915 63.49,13.98 L66.96,22.2 C70.34,19.72 74.96,20.76 77.06,16.2 C79.41,11 75.31,6.72 70.85,4.69 L68.58,13.08 L96.74,13.91 C102.53,14.08 102.53,5.08 96.74,4.91 L68.58,4.08 C64.33,3.95 62.16,10.58 66.31,12.47 C67.46,12.99 68.81,14.8 69.08,12.86 C69.29,11.32 68.62,12 67.26,12.37 C65.5184899,12.7337525 63.8622708,13.4261064 62.38,14.41 C58.55,17.22 60.6,24.26 65.85,22.63 C73.4044224,20.2646627 80.8223933,17.4837582 88.07,14.3 C92.42,12.4 89.87,6.05 85.8,5.91 L42.92,4.5 L32.92,4.17 C29.92,4.07 26.43,3.45 23.47,4.17 C21.5152774,4.54112676 19.8651006,5.84370972 19.0501961,7.65881474 C18.2352917,9.47391975 18.3584272,11.572644 19.38,13.28 C22.38,18.28 30.13,13.73 27.15,8.74 L27.15,8.74 L27.16,8.74 Z" id="Shape" fill="#EF6767"></path>
                        <path d="M61.85,10.98 L95.38,15.77 C106.01,17.28 115.82,19.12 123.53,27.19 C127.53,31.39 133.9,25.02 129.89,20.83 C122.08,12.67 112.3,9.26 101.38,7.61 C89.03,5.75 76.64,4.09 64.27,2.34 C58.61,1.54 56.16,10.21 61.88,11.02 L61.88,11.02 L61.85,10.98 Z" id="Shape" fill="#EF6767"></path>
                        <path d="M138.61,54.3 C138.268133,70.8002513 136.318919,87.2279065 132.79,103.35 C131.56,108.98 140,111.35 141.47,105.74 L141.83,104.37 C143.29,98.76 134.61,96.37 133.15,101.98 L132.79,103.35 L141.47,105.74 C145.181234,88.8298528 147.237598,71.5986006 147.61,54.29 C147.73,48.5 138.73,48.5 138.61,54.29 L138.61,54.29 L138.61,54.3 Z" id="Shape" fill="#EF6767"></path>
                        <path d="M117.75,50.32 C114.815163,63.871514 113.20757,77.6767228 112.95,91.54 C112.84,97.33 121.84,97.33 121.95,91.54 C122.160649,78.4867219 123.644344,65.4851332 126.38,52.72 C127.6,47.07 118.93,44.66 117.7,50.33 L117.7,50.33 L117.75,50.32 Z" id="Shape" fill="#EF6767"></path>
                        <path d="M9.26,160.7 C6.99,166.04 7.57,170.79 11.26,175.29 C13.62,178.15 19.41,175.92 18.94,172.11 C18.37,167.5 16.39,163.83 12.04,161.8 C10.6421556,161.031607 8.94481358,161.047661 7.56175416,161.842359 C6.17869475,162.637056 5.31007546,164.095387 5.27,165.69 C4.82,170.33 6.97,173.86 10.61,176.53 C13.25,178.46 17.72,175.89 17.38,172.64 C16.97,168.64 15.38,165.64 11.82,163.72 C9.42,162.4 5.82,163.48 5.21,166.41 C4,172.26 6.72,176.94 12.21,179.05 C15.69,180.38 18.33,176.54 17.75,173.51 C16.9761814,169.503481 14.5466734,166.009929 11.06,163.89 C7.75,161.7 3.39,165.32 4.45,168.97 C5.33122337,172.325036 7.56075437,175.16624 10.61,176.82 C13.74,178.59 18.71,175.58 17.22,171.74 C16.0927928,168.627008 14.2895382,165.802592 11.94,163.47 C10.6366309,162.233455 8.72766891,161.879645 7.06772749,162.566965 C5.40778607,163.254284 4.30771519,164.854022 4.26,166.65 C4.16,172.98 8.53,178.16 14.38,180.1 C21.11,182.31 27.84,179.69 34.23,177.65 C50.94,172.32 68.42,172.21 85.76,171.15 C94.19,170.64 102.51,168.96 110.92,168.49 C119.33,168.02 127.69,169.82 135.92,168.49 C141.11,167.66 146.15,162.49 143.05,157.05 C141.46,154.26 138.3,153.51 135.44,152.73 C131.02,151.52 126.58,150.37 122.15,149.19 C117.38,147.92 113.97,155.13 118.68,157.41 L127.14,161.51 C132.33,164.03 136.9,156.27 131.68,153.74 L123.22,149.64 L119.75,157.86 L129.24,160.39 C130.474192,160.83637 131.745962,161.171046 133.04,161.39 C134.986667,162.423333 135.44,162.226667 134.4,160.8 C134.306667,159.76 133.81,159.426667 132.91,159.8 C130.56,159.04 125.91,159.8 123.35,159.72 C120.48,159.59 117.61,159.42 114.74,159.42 C108.39,159.42 102.2,160.61 95.91,161.33 C90.08,162 84.21,162.28 78.35,162.56 C66.72,163.13 55.04,163.75 43.59,165.98 C37.980326,167.227196 32.4394755,168.76595 26.99,170.59 C22.93,171.83 13.08,173.79 13.26,166.69 L5.58,169.87 C6.88775967,171.062024 7.9127185,172.531131 8.58,174.17 L15.19,169.09 C14.0959177,168.731165 13.3134275,167.76479 13.19,166.62 L6.58,171.7 C8.03215631,172.650471 8.97112228,174.211732 9.13,175.94 L14.67,170.4 L13.93,168.83 L7.32,171.52 L8.42,172.67 L15.19,168.78 C14.2662672,168.052876 13.9117419,166.816066 14.31,165.71 L7.54,169.6 C8.79447989,169.867889 9.76254344,170.867563 9.99,172.13 L17.67,168.95 C16.7408384,167.956731 16.4930317,166.505292 17.04,165.26 C19.28,159.99 11.53,155.4 9.27,160.72 L9.27,160.72 L9.26,160.7 Z" id="Shape" fill="#EF6767"></path>
                        <path d="M32.24,15.07 C17.86,16.31 16.65,34.31 15.76,45.55 C14.66,59.43 15.47,73.33 13.7,87.18 C10.31,113.67 3.89,141.26 17.7,166.03 C20.3,170.72 28.16,171.12 30.7,166.03 C35.91,155.4 32.27,142.56 31.6,131.25 C30.8160642,118.096881 30.742624,104.911036 31.38,91.75 C31.8722777,79.0940808 33.141333,66.4803386 35.18,53.98 C36.47,46.53 38.18,30.49 46.74,27.1 L37.51,21.86 C40.58,31.45 35.36,40.86 32.66,49.86 C29.84,59.31 29.23,69.29 29.03,79.09 C28.81,89.75 28.43,100.3 27.48,110.92 C26.58,120.92 25.59,131.01 25.97,141.09 C26.29,149.39 26.18,163.63 34.14,168.73 C38.2029152,171.179548 43.3785674,170.748244 46.98,167.66 C50.78,164.57 51.83,160.04 51.98,155.35 C52.53,134.59 51.61,113.82 52.49,93.05 C52.98,81.48 53.82,69.89 55.39,58.41 C56.1566667,52.8166667 57.1066667,47.25 58.24,41.71 C58.87,38.63 59.55,35.56 60.3,32.51 C60.6333769,31.5297686 60.8973623,30.5272927 61.09,29.51 C61.23,27.87 62.01,28.71 60.73,28.96 L56.73,28.96 L57.38,29.2 L52.9,25.75 C53.62,27.39 53.3,30.46 53.39,32.25 C53.51,34.71 53.52,37.18 53.39,39.64 C53.1872654,44.8713588 52.6830955,50.0866786 51.88,55.26 C50.34,65.58 48.38,75.84 47.31,86.26 C45.15,107.26 45.97,128.36 46.78,149.37 C47.09,157.25 45.63,173.37 57.11,173.77 C66.69,174.11 69.92,164 71.16,156.4 C74.48,136.06 70.68,115.28 70.75,94.82 C70.801617,83.2593292 71.4692302,71.7096215 72.75,60.22 C73.4166667,54.1866667 74.2733333,48.1866667 75.32,42.22 C75.91,38.84 76,33.22 79.46,31.56 L68.48,26.98 C71.59,36.32 70.89,46.53 70.71,56.24 C70.51,66.69 70,77.13 69.54,87.58 C68.64,108.07 68.94,128.18 70,148.65 C70.42,156.71 66,170.65 78.24,172.04 C88.09,173.12 90.73,160.83 91.91,153.53 C93.43,144.1 93.15,134.64 92.76,125.14 C92.3266667,114.533333 91.9933333,103.923333 91.76,93.31 C91.5,81.78 91.18,70.23 91.52,58.7 C91.68,53.42 91.99,48.14 92.62,42.89 C92.9533333,40.1766667 93.3933333,37.4766667 93.94,34.79 C94.1866667,33.5766667 94.45,32.3666667 94.73,31.16 L95.18,29.35 C96.04,27.05 95.8166667,26.95 94.51,29.05 L88.73,29.81 C85.97,29.24 87.57,28.04 87.79,29.98 C88.0467185,31.0526361 88.3604981,32.1108075 88.73,33.15 C89.1943464,35.2094756 89.4555967,37.3095267 89.51,39.42 C89.5901621,43.9490596 89.4232475,48.4791206 89.01,52.99 C88.2833333,63.5633333 87.8133333,74.15 87.6,84.75 C87.16,105.96 87.6,127.17 88.1,148.37 C88.29,156.04 87.73,169.08 98.74,169.29 C108.12,169.47 111.74,158.29 112.84,150.84 C115.7,130.69 111.71,109.71 109.26,89.72 C107.797834,78.979132 106.993003,68.1589909 106.85,57.32 C106.822988,51.8638976 107.157051,46.4119872 107.85,41 C108.21,38.33 108.7,35.67 109.3,33 C109.57,31.82 109.86,30.64 110.17,29.46 L110.66,27.7 C111.38,25.9933333 110.92,26.0133333 109.28,27.76 L103.38,27.09 C102.146667,25.87 101.813333,25.87 102.38,27.09 C102.613333,27.97 102.833333,28.8566667 103.04,29.75 C103.38,31.23 103.68,32.75 103.95,34.21 C104.53,37.43 104.95,40.67 105.18,43.94 C105.7,50.34 105.76,56.76 105.67,63.17 C105.48,76.41 104.58,89.65 105.08,102.89 C105.57,115.97 106.57,128.89 106.46,142.02 C106.38,151.9 107.57,170.69 121.7,169.85 C125.036441,169.737511 127.936774,167.527161 128.93,164.34 C132.93,153.65 129.85,141.46 128.26,130.57 C126.43,118.06 124.37,105.57 122.81,93.02 C121.3,80.89 120,68.56 120.22,56.32 C120.38,45.91 122.46,35.28 130.38,27.88 L117.84,24.57 C121.84,48.15 120.71,72.19 120.78,95.99 C120.714188,107.589837 121.248234,119.185319 122.38,130.73 C123.01,136.67 123.84,142.59 124.99,148.45 C126.11,154.15 126.86,160.13 132.24,163.36 C137.62,166.59 142.83,162.25 143.53,156.88 C146.53,133.69 141.39,110.74 140.17,87.62 C139.411492,76.5689787 140.328527,65.4667927 142.89,54.69 C145.68,43.59 148.98,31.86 144.47,20.69 C142.95,16.95 139.47,14.27 135.24,15.45 C131.69,16.45 128.47,20.89 130,24.68 C134.18,35 129.33,45.61 127.19,55.86 C125.05246,66.9003603 124.403355,78.1772932 125.26,89.39 C126.65,111.89 131.45,134.25 128.51,156.83 L139.8,150.35 C141.47,151.35 140.89,152.3 140.63,149.91 C140.47,148.41 139.93,146.82 139.63,145.33 C139.07,142.576667 138.583333,139.81 138.17,137.03 C137.4,131.83 136.92,126.58 136.57,121.34 C135.82,110.05 135.79,98.74 135.83,87.43 C135.92,65.03 136.08,42.69 132.34,20.53 C131.34,14.66 123.56,13.71 119.8,17.22 C101.38,34.44 104.48,62.71 106.9,85.34 C108.28,98.28 110.25,111.14 112.2,124.01 C113.2,130.42 114.2,136.84 115.01,143.27 C115.79,149.09 116.56,154.79 114.46,160.41 L121.69,154.9 C125.3,154.69 122.24,156.15 122.69,154.95 C122.84,154.54 122.19,153.06 122.1,152.63 C121.672203,150.341157 121.451312,148.018451 121.44,145.69 C121.32,140.81 121.62,135.94 121.54,131.06 C121.36,120.74 120.22,110.46 119.97,100.15 C119.47,80.23 121.97,60.24 119.82,40.36 C119.354225,35.7713165 118.639842,31.211282 117.68,26.7 C116.68,22 115.68,16.46 110.98,14.15 C100.09,8.82 95.9,23.37 94.35,30.89 C90.28,50.69 91.87,70.89 94.35,90.75 C95.79,102.37 97.44,113.97 98.19,125.65 C98.5865583,131.474507 98.6833527,137.315552 98.48,143.15 C98.36,146.24 97.96,154.15 96.01,155.24 L99.8,154.24 L103.3,156.79 L103.3,156.4 C103.383438,155.066303 103.349977,153.727862 103.2,152.4 C103.133333,149.733333 103.07,147.066667 103.01,144.4 C102.883333,139.066667 102.77,133.763333 102.67,128.49 C102.48,118.22 102.38,107.94 102.44,97.67 C102.5,87.07 102.74,76.47 103.26,65.88 C103.71,56.57 105.11,47.05 104.44,37.73 C103.88,29.94 101.94,17.27 92.74,15.34 C81.67,13.02 79.88,27.87 78.68,35.34 C75.5,55.12 76.34,75.34 76.83,95.26 C77.11,106.98 77.62,118.68 78.02,130.39 C78.2473792,135.388565 78.207322,140.395713 77.9,145.39 C77.7322771,147.918756 77.3813564,150.432017 76.85,152.91 C76.5966667,154.043333 76.3133333,155.17 76,156.29 L75.38,158.05 C74.7133333,159.656667 75.3166667,159.466667 77.19,157.48 L81.19,157.48 C83.9,158.26 84.01,162.91 84.67,157.77 C84.83,156.54 84.96,155.33 85.02,154.09 C85.1066457,151.384501 85.0298392,148.676239 84.79,145.98 C84.37,140.22 83.94,134.48 83.79,128.71 C83.45,116.64 83.79,104.57 84.31,92.52 C84.8,80.77 85.42,69.03 85.67,57.27 C85.9,45.94 86.56,33.94 82.93,23.04 C81.32,18.22 76.4,16.34 71.93,18.56 C61.5,23.69 60.83,37.64 59.38,47.68 C57.4772509,60.7331709 56.3253562,73.884803 55.93,87.07 C55.58,99.77 56.22,112.39 57.01,125.07 C57.4983211,131.494332 57.6485284,137.939895 57.46,144.38 C57.361734,147.358546 57.0744897,150.32785 56.6,153.27 C56.38,154.58 55.54,156.42 55.67,157.75 L55.38,158.98 C54.6066667,160.453333 55.6066667,160.37 58.38,158.73 L62.86,162.18 C61.86,160.79 62.27,157.68 62.16,156.01 C62,153.48 61.9,150.94 61.8,148.41 C61.6066667,143.236667 61.4333333,138.063333 61.28,132.89 C60.98,122.19 60.85,111.48 61.28,100.79 C62.18,80.23 67.73,60.2 68.41,39.68 C68.65,32.35 69.96,16.86 60.65,14.54 C50.99,12.14 47,23.34 45.32,30.43 C40.61,50.34 38.44,70.82 37.5,91.23 C36.98,102.59 36.83,113.96 36.82,125.33 L36.82,142.39 L36.82,150.91 L36.82,154.69 L36.82,156.14 C36.4533333,157.773333 37.1433333,157.516667 38.89,155.37 L42.68,156.37 C43.1133333,157.316667 43.1833333,157.35 42.89,156.47 C42.7366667,155.956667 42.61,155.44 42.51,154.92 C42.16,153.4 41.86,151.86 41.63,150.31 C41.1998676,147.273547 40.9394631,144.215462 40.85,141.15 C40.6784402,135.1894 40.8320015,129.223879 41.31,123.28 C42.19,111.03 43.58,98.86 43.79,86.57 C43.99,74.96 43.95,63.43 47.51,52.25 C51.07,41.07 55.67,29.84 51.84,17.89 C50.71,14.35 46.51,11.1 42.61,12.65 C31.53,17.1 26.32,27.26 23.24,38.41 C19.68,51.31 18.33,65 17.24,78.3 C16.0640871,92.0665829 15.6667875,105.888602 16.05,119.7 C16.2433333,126.766667 16.6466667,133.823333 17.26,140.87 C17.69,145.87 20.02,153.74 17.71,158.46 L30.71,158.46 C19.86,138.95 24.76,115.69 27.76,94.8 C29.3535154,83.3501643 30.2086154,71.8096549 30.32,60.25 C30.4,54.74 30.5,49.25 31.02,43.73 C31.2955145,40.7634592 31.7597886,37.8174899 32.41,34.91 C32.7749321,33.744083 33.0753869,32.5589557 33.31,31.36 C33.55,29.1 35.17,29.82 32.31,30.07 C41.86,29.25 41.94,14.24 32.31,15.07 L32.31,15.07 L32.24,15.07 Z" id="Shape" fill="#EF6767"></path>
                        <path d="M13.31,176.48 C10.37,168.22 11.71,158.6 11.56,149.96 C11.3866667,139.993333 11.24,130.026667 11.12,120.06 C10.88,100.126667 10.7466667,80.1933333 10.72,60.26 L10.72,30.36 C10.72,25.43 9.9,18.95 14.65,15.85 C18.35,13.44 24.16,12.74 28.41,11.85 C38.41,9.65 47.78,10.69 57.81,11.62 C67.5,12.52 77.22,12.84 86.95,12.91 C96.68,12.98 106.43,12.8 116.17,12.69 C125.49,12.59 136.06,11.33 145.24,13.19 C156.35,15.45 154.67,27.38 154.67,36.1 L154.67,65.87 L154.67,124.87 L154.67,154.48 C154.67,159.01 154.75,163.54 154.67,168.07 C154.67,170.56 154.45,173.45 152.58,175.37 C150.5,177.5 146.71,177.99 143.93,178.31 C133.62,179.52 122.83,177.73 112.47,177.61 C101.29,177.48 90.12,177.83 78.95,178.24 C67.78,178.65 56.61,179.12 45.42,179.24 C40.17,179.3 34.91,179.24 29.66,179.14 C26.7066667,179.06 23.7533333,178.94 20.8,178.78 C17.8,178.61 13.61,179.05 11.25,176.78 C9.86,175.44 7.73,177.56 9.13,178.9 C11.34,181.03 13.9,181.32 16.87,181.54 C22.43,181.96 28.02,182.14 33.6,182.23 C45.1,182.41 56.6,182.07 68.1,181.65 C90.29,180.84 112.24,180.54 134.43,181.52 C140.89,181.81 151.57,182.39 155.82,176.18 C157.59,173.6 157.66,170.38 157.69,167.37 C157.76,161.43 157.69,155.48 157.69,149.53 L157.69,82.76 L157.69,32.1 C157.69,28.2 157.88,24.1 156.91,20.3 C155.01,12.9 148.99,10.22 141.85,9.79 C131.07,9.14 120.16,9.6 109.37,9.74 C98.37,9.88 87.3,10.02 76.27,9.68 C64.97,9.33 53.73,7.48 42.46,7.27 C33.52,7.11 23,8.86 14.8,12.47 C7.36,15.75 7.8,23.35 7.74,30.37 C7.64,55.6166667 7.71,80.8633333 7.95,106.11 C8.07666667,119.063333 8.24666667,132.016667 8.46,144.97 C8.63,155.32 6.88,167.37 10.41,177.27 C11.05,179.08 13.95,178.27 13.3,176.47 L13.3,176.47 L13.31,176.48 Z" id="Shape" fill="#000000"></path>
                        <path d="M11.75,177.32 C0.4,173.93 3.67,154.81 3.62,145.85 L3.46,114.17 C3.34666667,92.3966667 3.23333333,70.6233333 3.12,48.85 C3.12,37.95 2.32,26.06 4.74,15.35 C7.5,3.12 20.51,4.67 30.33,4.69 L95.91,4.81 C107.74,4.81 119.73,4.29 131.54,5.19 C136.8,5.59 143.42,5.84 146.99,10.19 C149.56,13.32 151.32,17.02 153.93,20.12 C155.17,21.6 157.29,19.47 156.05,18 C153.58,15.07 151.9,11.56 149.5,8.57 C146.79,5.18 144.29,4.18 140.04,3.32 C128.57,1 116.49,1.84 104.86,1.82 L29.38,1.69 C21.47,1.69 10.92,0.52 5.19,7.31 C2.66,10.31 1.85,14.18 1.34,17.96 C0.59008565,24.3058818 0.209444477,30.6899688 0.2,37.08 C-0.21,62.08 0.36,87.17 0.49,112.19 L0.72,155.75 C0.72,164.8 0.33,177.03 11,180.22 C12.85,180.77 13.65,177.88 11.8,177.33 L11.8,177.33 L11.75,177.32 Z" id="Shape" fill="#000000"></path>
                        <path d="M25.64,24.77 C19.42,20.49 18.19,27.52 17.64,32.42 L20.64,32.42 C20.5644161,28.8078084 20.0027009,25.2222492 18.97,21.76 C18.7769489,21.1234908 18.1901411,20.6882636 17.525,20.6882636 C16.8598589,20.6882636 16.2730511,21.1234908 16.08,21.76 C14.7066165,26.0922124 14.6474608,30.7341964 15.91,35.1 C16.1301171,35.8022832 16.8244744,36.2435785 17.5537716,36.1446907 C18.2830689,36.0458029 18.8348421,35.4355408 18.86,34.7 C19.15,30.56 19.25,26.42 19.15,22.27 L16.2,22.67 C16.7053547,25.1273992 16.9500423,27.6312568 16.93,30.14 L19.93,30.14 C19.8256943,27.4709883 19.9058852,24.7979591 20.17,22.14 L17.22,22.54 C18.2253369,24.9711196 18.6234754,27.610503 18.38,30.23 L21.38,30.23 L21.47,21.77 L18.52,22.17 L19.59,26.17 C19.7369314,26.6817089 20.1424718,27.0782305 20.6573554,27.2136182 C21.1722389,27.3490059 21.7203701,27.2032506 22.1,26.83 C22.980313,25.8705506 23.3252411,24.5358286 23.02,23.27 C22.88,21.83 21.76,21.63 22.09,19.74 C22.56,17.06 25.99,16.38 28.09,15.91 C29.97,15.49 29.18,12.59 27.29,13.02 C24.52,13.64 21.7,14.57 20.08,17.02 C19.3998267,18.014981 19.0213417,19.1851595 18.99,20.39 C18.99,21.24 20.42,24.14 19.99,24.67 L22.5,25.33 L21.43,21.33 C21.2098829,20.6277168 20.5155256,20.1864215 19.7862284,20.2853093 C19.0569311,20.3841971 18.5051579,20.9944592 18.48,21.73 L18.38,30.23 C18.38,32.23 21.23,32.13 21.38,30.23 C21.6473099,27.3279207 21.1938901,24.4047369 20.06,21.72 C19.8398829,21.0177168 19.1455256,20.5764215 18.4162284,20.6753093 C17.6869311,20.7741971 17.1351579,21.3844592 17.11,22.12 C16.8458852,24.7779591 16.7656943,27.4509883 16.87,30.12 C16.87,30.9484271 17.5415729,31.62 18.37,31.62 C19.1984271,31.62 19.87,30.9484271 19.87,30.12 C19.8846402,27.3418294 19.6064369,24.5698521 19.04,21.85 C18.7,20.19 16.04,20.57 16.09,22.25 C16.19,26.4 16.09,30.54 15.8,34.68 L18.75,34.28 C17.6163173,30.4363743 17.6755953,26.3392193 18.92,22.53 L16.06,22.53 C17.0199186,25.7318138 17.5446266,29.0482378 17.62,32.39 C17.62,34.39 20.4,34.27 20.62,32.39 C20.84,30.51 21.03,25.2 24.13,27.33 C25.72,28.43 27.23,25.83 25.64,24.74 L25.64,24.74 L25.64,24.77 Z" id="Shape" fill="#EF6767"></path>
                    </g>
                </g>
                <path d="M13.1026225,22.0045554 C13.0459457,17.5837615 16.5803779,13.9990782 20,14 C20,14 19.8359827,13.9976056 20,14 C20.1640173,14.0023944 142.000008,15.8769157 142.000008,15.8769157 C146.418282,15.9448933 150,19.5800004 150,24.0090729 L150,161.990927 C150,166.414216 146.42385,170 142.00935,170 L22.9906502,170 C18.577536,170 14.9539891,166.411153 14.8973775,161.995445 L13.1026225,22.0045554 Z" id="Rectangle-7" fill="#EF6767"></path>
                <path d="M21,14 C21,14 21.0109676,13.8328968 20,14 C18.9890324,14.1671032 17.4850044,14.7574978 17,15 C16.5493228,15.2253386 15.3908941,15.5513266 15,16 C14.6091059,16.4486734 14,17 14,17 C14,17 14.7707481,17.0982508 15,17 C15.2292519,16.9017492 21,14 21,14 Z" id="Path-11" fill="#EF6767"></path>
                <path d="M21,8 C21,8 16.8897182,9.40685455 16,10 C15.1102818,10.5931454 14,12 14,12 C14,12 11.4117777,13.0951042 12,13 C12.5882223,12.9048958 17.2261558,11.4421967 18,11 C19.2747402,10.271577 21,8 21,8 Z" id="Path-11" stroke="#EF6767" fill="#EF6767"></path>
            </g>
        </g>
    </g>
</svg>