<?xml version="1.0" encoding="UTF-8"?>
<svg width="21px" height="33px" viewBox="0 0 21 33" version="1.1" xmlns="http://www.w3.org/2000/svg" xmlns:xlink="http://www.w3.org/1999/xlink">
    <!-- Generator: Sketch 41.2 (35397) - http://www.bohemiancoding.com/sketch -->
    <title>Group 2</title>
    <desc>Created with Sketch.</desc>
    <defs>
        <path d="M8,22.4976267 C8,21.1182256 9.10966206,20 10.5,20 L10.5,20 C11.8807119,20 13,21.1276884 13,22.4976267 C13,22.4976267 13,30 13,30 C13,30 8,30 8,30 C8,30 8,22.4976267 8,22.4976267 Z" id="path-1"></path>
        <mask id="mask-2" maskContentUnits="userSpaceOnUse" maskUnits="objectBoundingBox" x="0" y="0" width="5" height="10" fill="white">
            <use xlink:href="#path-1"></use>
        </mask>
    </defs>
    <g id="Page-1" stroke="none" stroke-width="1" fill="none" fill-rule="evenodd">
        <g id="180---iPhone-6-Plus" transform="translate(-55.000000, -40.000000)">
            <g id="Group-2" transform="translate(55.000000, 40.000000)">
                <path d="M7.2421875,19.828125 C7.36523438,20.0214844 7.98046875,20.2851562 8.52539062,20.2851562 C9.2109375,20.2851562 10.0019531,20.0917969 10.3359375,19.6523438 C12.3222656,17.015625 15.328125,11.4960938 16.5761719,8.56054688 C17.015625,7.50585938 17.7714844,6.34570313 18.4042969,5.36132812 C19.3007812,3.95507812 20.0742188,2.77734375 20.0742188,1.84570312 C20.0742188,0.791015625 19.5117188,0 18.6679688,0 C18.3691406,0 18,0.17578125 17.6660156,0.404296875 C16.8398438,1.16015625 14.5371094,5.625 13.7636719,7.15429688 C12.796875,9.03515625 9.58007812,16.4707031 9.03515625,16.4707031 C8.77148438,16.4707031 8.47265625,15.2929688 8.296875,14.9238281 C6.1875,10.9511719 4.90429688,6.66210938 3.5859375,2.77734375 C3.05859375,1.31835938 2.79492188,0.826171875 1.31835938,0.826171875 C0.193359375,0.826171875 0,1.6875 0,2.33789062 C0,3.84960938 0.896484375,4.9921875 1.40625,6.31054688 C1.81054688,7.36523438 2.14453125,8.47265625 2.47851562,9.52734375 C3.60351562,13.0429688 5.0625,16.6816406 7.2421875,19.828125 Z" id="v" fill="#212121" transform="translate(10.037109, 10.142578) rotate(180.000000) translate(-10.037109, -10.142578) "></path>
                <path d="M10.7421875,23.6640625 C10.2148438,23.6640625 9.74609375,24.1796875 9.74609375,24.578125 C9.74609375,24.859375 9.74609375,25.328125 10.6484375,25.328125 L25.7304688,25.328125 C26.328125,25.328125 26.7382812,25.2460938 26.7382812,24.5078125 C26.7382812,23.8867188 26.28125,23.6640625 25.71875,23.6640625 L10.7421875,23.6640625 Z" id="_" fill="#212121" transform="translate(18.242188, 24.496094) rotate(90.000000) translate(-18.242188, -24.496094) "></path>
                <path d="M-4.66796875,23.6640625 C-5.1953125,23.6640625 -5.6640625,24.1796875 -5.6640625,24.578125 C-5.6640625,24.859375 -5.6640625,25.328125 -4.76171875,25.328125 L10.3203125,25.328125 C10.9179688,25.328125 11.328125,25.2460938 11.328125,24.5078125 C11.328125,23.8867188 10.8710938,23.6640625 10.3085937,23.6640625 L-4.66796875,23.6640625 Z" id="_" fill="#212121" transform="translate(2.832031, 24.496094) rotate(90.000000) translate(-2.832031, -24.496094) "></path>
                <path d="M3.0093207,31.1481506 C2.48197695,31.1481506 2.01322695,31.6637756 2.01322695,32.0622131 C2.01322695,32.3434631 2.01322695,32.8122131 2.9155707,32.8122131 L17.997602,32.8122131 C18.5952582,32.8122131 19.0054145,32.7301818 19.0054145,31.9919006 C19.0054145,31.3708068 18.5483832,31.1481506 17.9858832,31.1481506 L3.0093207,31.1481506 Z" id="_" fill="#212121" transform="translate(10.509321, 31.980182) rotate(181.000000) translate(-10.509321, -31.980182) "></path>
                <use id="Rectangle-5" stroke="#212121" mask="url(#mask-2)" stroke-width="2" xlink:href="#path-1"></use>
            </g>
        </g>
    </g>
</svg>