<?xml version="1.0" encoding="UTF-8"?>
<svg width="161px" height="180px" viewBox="0 0 161 180" version="1.1" xmlns="http://www.w3.org/2000/svg" xmlns:xlink="http://www.w3.org/1999/xlink">
    <!-- Generator: Sketch 41.2 (35397) - http://www.bohemiancoding.com/sketch -->
    <title>Group</title>
    <desc>Created with Sketch.</desc>
    <defs></defs>
    <g id="Page-1" stroke="none" stroke-width="1" fill="none" fill-rule="evenodd">
        <g id="Desktop" transform="translate(-682.000000, -752.000000)">
            <g id="Group" transform="translate(681.000000, 714.000000)">
                <g id="oxygeneyes">
                    <g id="Oxygen" transform="translate(0.000000, 38.000000)">
                        <path d="M9.7594448,4.7443205 C12.5446499,1.14813204 39.6430459,1.83905053 70.3442205,2.64899258 C81.6623998,2.94758276 94.5316552,3.85838209 108.209705,3.69665654 C121.887756,3.53493099 154.959447,2.70684305 159.057642,9.98264032 C161.740925,14.7464507 157.975771,41.4125592 159.057642,74.937806 C160.139513,108.463053 159.879742,172.440595 157.975771,175.513546 C154.730158,180.751866 6.51383182,175.513546 6.51383182,175.513546 C6.51383182,175.513546 1.10447685,21.5069439 2.18634784,14.1732962 C3.26821884,6.83964843 9.09902405,5.59703958 9.7594448,4.7443205 Z" id="Rectangle-8" fill="#7798ED"></path>
                        <g id="O">
                            <g id="Layer_3">
                                <path d="M27.01,0.62 C15.01,-2.38 5.49,6.98 4.67,18.5 C4.31,23.5 5.46,28.73 5.79,33.74 C6.16,39.32 6.28,44.91 6.22,50.49 C6.01,72.02 3.22,93.42 2.56,114.93 C2.12013579,125.430324 2.45437354,135.948786 3.56,146.4 C4.67,155.99 5.08,169.24 14.32,174.9 C18.51,177.47 23.46,177.84 28.25,177.9 C33.91,178.02 39.58,178.1 45.25,178.2 L80.25,178.82 L114.25,179.43 C123.78,179.6 134.34,180.74 143.47,177.31 C154.11,173.31 159.4,164.42 160.27,153.31 C161.11,142.62 160.42,131.62 160.44,120.91 C160.44,98.6233333 160.463333,76.3366667 160.51,54.05 C160.51,43.43 161.1,31.18 156.84,21.23 C152.48,11.04 141.03,7.65 131.04,5.42 C108.04,0.28 84.56,3.55 61.26,3.27 C50.2,3.14 36.9,-0.73 26.64,4.82 C15.89,10.67 12.98,24.32 20.86,33.62 C24.54,37.94 31.93,37.4 35.71,33.62 C39.99,29.34 39.4,23.1 35.71,18.77 C36.3486791,19.9773031 36.7972882,21.2759082 37.04,22.62 C37.0131894,22.9177795 36.8779643,23.1953467 36.66,23.4 C37.09,23.81 34.33,23.04 37.05,23.26 C40.81,23.57 44.82,23.43 48.66,23.76 C57.0513391,24.3895873 65.4720756,24.5331605 73.88,24.19 C89.79,23.73 106.22,22.19 121.98,25.04 C125.738188,25.7165486 129.446571,26.6453148 133.08,27.82 C134.58985,28.2425601 136.051186,28.8224022 137.44,29.55 C138.91,30.41 137.7,29.67 137.44,29.33 C137.700066,29.8401718 137.869263,30.3917518 137.94,30.96 C139.36,39.32 139.44,47.61 139.43,56.08 C139.43,74.4333333 139.41,92.7866667 139.37,111.14 L139.37,137.69 C139.37,141.83 139.43,145.98 139.37,150.12 C139.37,152.4 139.54,155.45 137.75,156.99 C134.06,160.18 124.68,158.65 120.22,158.57 L93.22,158.09 L37.22,157.09 C33.71,157.03 28.55,155.94 25.22,156.83 C23.1,157.4 24.71,156.74 24.72,156.72 C24.73,156.7 27.72,158.58 26.85,158.93 C26.85,158.93 25.73,153.93 25.68,153.68 C24.2351335,145.477198 23.4725238,137.168766 23.4,128.84 C23.02,109.52 25.12,90.27 26.34,71.02 C26.95,61.39 27.34,51.74 27.11,42.08 C26.99,37.08 26.69,32.16 26.18,27.22 C25.97,25.22 25.98,23.01 25.58,21.05 C25.6035997,20.5123189 25.5801773,19.9736039 25.51,19.44 C26.15,20.34 20.15,20.53 21.37,20.84 C34.53,24.17 40.12,3.93 27.01,0.62 L27.01,0.62 Z" id="Shape" fill="#7798ED"></path>
                                <path d="M29.13,27.3 L27,41.7 C26.56,44.62 25.63,47.62 27.37,50.22 C28.44,51.82 31.04,50.32 29.96,48.71 C28.21,46.1 30.16,40.63 30.59,37.71 L32.01,28.11 C32.29,26.22 29.4,25.41 29.12,27.31 L29.12,27.31 L29.13,27.3 Z" id="Shape" fill="#7798ED"></path>
                                <path d="M5.01,31.62 L4.58,45.42 L13.42,44.22 C12.5835268,38.0073367 12.3190841,31.7310066 12.63,25.47 L3.63,25.47 C3.75,72.61 5.35,119.76 6.35,166.88 L14.73,164.62 C13.4349171,161.784187 12.8186141,158.685553 12.93,155.57 C13.01,149.57 4.67,150.02 3.93,155.57 C2.71,164.66 8.57,172.84 17.03,175.72 L17.03,167.04 C16.5283071,167.273906 15.9521089,167.289426 15.4385518,167.082867 C14.9249948,166.876307 14.5200129,166.466142 14.32,165.95 L7.25,171.4 C10.1265281,174.82 14.7862468,176.159818 19.04,174.79 C24.58,173.14 22.22,164.45 16.65,166.11 C15.15,166.56 14.58,166.19 13.65,165.03 C10.35,161.08 3.94,166.18 6.58,170.48 C9.14616846,174.993376 14.473723,177.156661 19.46,175.71 C23.97,174.56 23.46,168.4 19.46,167.03 C14.46,165.33 12.3,160.55 12.97,155.56 L3.97,155.56 C3.90848185,160.263958 4.93521097,164.918463 6.97,169.16 C8.89,173.3 15.45,171.16 15.36,166.89 C14.34,119.76 12.75,72.62 12.63,25.47 C12.63,19.66 3.88,19.7 3.63,25.47 C3.34898613,32.5391327 3.72055983,39.6191181 4.74,46.62 C5.47,51.8 13.43,50.29 13.58,45.42 L14.01,31.62 C14.19,25.83 5.19,25.83 5.01,31.62 L5.01,31.62 Z" id="Shape" fill="#7798ED"></path>
                                <path d="M40.8,25 C35.9724341,27.6211157 31.4398561,30.7523493 27.28,34.34 L33.63,40.7 C37.4636154,37.3336004 40.3753685,33.0451318 42.09,28.24 C43.36,24.89 39.62,21.94 36.55,22.7 C30.51303,24.0984741 25.371358,28.030341 22.44,33.49 C19.9,38.49 21.93,44.25 27.69,45.49 C31.05,46.21 33.94,44.93 36.95,43.59 C40.52,41.99 44.09,40.48 47.8,39.23 C55.5564347,36.6152017 63.5787127,34.8678744 71.72,34.02 C76.67,33.5 77.95,26.86 72.92,25.18 C66.4249418,23.0192151 59.4674461,22.6495766 52.78,24.11 C47.06,25.28 49.54,33.75 55.17,32.79 C62.9350959,31.4702893 70.7669393,30.5789414 78.63,30.12 C83.54,29.83 84.93,22.64 79.83,21.28 C72.0841841,19.2200715 63.9746078,18.9261719 56.1,20.42 C50.91,21.36 52.45,29.04 57.3,29.26 L104.13,31.37 L100.24,29.14 C111.04,50.97 109.32,76.24 105.48,99.59 C104.56,105.18 112.78,107.72 114.16,101.98 C118.05,85.79 114.94,68.46 121.29,52.83 L112.42,51.62 L116.7,107.48 L125.54,106.28 C124.56,100.1 123.893333,93.89 123.54,87.65 C123.373333,84.8033333 123.266667,81.9533333 123.22,79.1 C123.22,77 122.36,72.75 123.54,71.1 L120.85,73.17 C118.61,74.07 119.15,72.96 119.31,75.27 C119.583648,76.7327112 119.96468,78.1732763 120.45,79.58 C121,81.89 121.45,84.23 121.85,86.58 C122.78,92.08 123.3,97.65 123.85,103.19 C124.71,111.44 124.33,122.69 130.41,129.07 C131.96,130.7 135.26,130.93 136.77,129.07 C140.98,123.88 138.27,115.75 137.64,109.62 C136.89,102.35 134.99,93.83 138.53,87.03 L130.31,85.96 C133.02,103.96 135.58,121.96 135.31,140.21 L144.31,140.21 C142.956242,125.2806 142.572103,110.27912 143.16,95.3 L134.16,95.3 C134.41,106.48 135.07,117.64 136.23,128.77 C136.76,133.77 137.54,138.84 138.05,143.88 C138.41,147.4 139.26,153.66 135.61,155.83 L139.08,155.38 C140.053333,156.586667 140.21,156.073333 139.55,153.84 C139.588104,152.547486 139.800007,151.265981 140.18,150.03 C140.888799,147.615923 141.819432,145.272603 142.96,143.03 L134.74,141.96 C135.551636,146.692432 135.323006,151.544847 134.07,156.18 L142.29,155.11 C138.84,149.24 138.38,141.71 129.73,141.54 C126.73,141.48 121.58,142.66 119.22,144.54 C116.866667,144.933333 117.283333,145.5 120.47,146.24 L119.74,142.51 L118.28,135.06 C117.28,130.06 109.42,131.27 109.44,136.26 C109.48004,142.779063 108.734671,149.279215 107.22,155.62 C106.22,159.92 111.49,163.26 114.74,160 L121.53,153.21 C125.64,149.1 119.38,142.88 115.17,146.85 C112.98,148.91 110.47,151.53 107.48,152.38 C103.84,153.38 100.99,150.97 97.92,149.38 C92.4392385,146.654815 86.2499554,145.690795 80.2,146.62 C68.34,148.15 54.02,156.92 42.52,150.11 L39.05,158.33 C55.35,164.08 72.56,160.76 88.95,157.2 L83.41,154.06 C85.74,161.26 92.82,162.26 99.41,162.69 C108.498105,163.116195 117.532038,164.330757 126.41,166.32 C131.208805,167.435058 135.895131,168.98824 140.41,170.96 C143.46,172.33 146.53,174.49 149.96,174.64 C157.37,174.97 160.18,167.41 159.62,161.21 C159.1,155.37 151.27,155.48 150.62,161.21 C150.45,162.7 150.16,167.01 147.62,166.21 C142.34,164.57 140.41,171.55 144.15,174.43 C148.15,177.54 154.03,175.71 156.63,171.59 C160.57,165.35 155.45,159.34 155.85,152.99 C156.21,147.21 147.21,147.23 146.85,152.99 C146.729696,155.277803 147.010598,157.569014 147.68,159.76 C147.87,160.41 149.14,167 148.68,166.66 L145.21,174.88 C154.42,177.74 158.7,168.68 159.56,161.17 L150.56,161.17 C150.62,161.82 150.96,163.57 150.56,164.23 C149.62,165.87 149.69,165.09 148.06,164.69 C145.56,164.06 142.98,162.28 140.53,161.31 C135.025159,159.174548 129.334118,157.554275 123.53,156.47 C118.17,155.47 112.74,154.75 107.31,154.25 C104.83,154.02 92.95,154.8 91.93,151.63 C91.2190412,149.271142 88.7790336,147.888178 86.39,148.49 C71.5,151.72 56.08,154.84 41.27,149.62 C36.37,147.89 33.51,155.3 37.8,157.84 C52.15,166.33 66.54,157.25 81.22,155.46 C85.5518136,154.766863 89.9918385,155.467182 93.9,157.46 C97.08,159.12 100.02,161.01 103.67,161.46 C110.78,162.31 116.5,157.67 121.35,153.1 L114.99,146.74 L108.38,153.62 L115.9,158 C117.613173,150.874228 118.465923,143.568773 118.44,136.24 L109.63,137.42 C110.76,143.22 110.57,154.89 119.2,153.82 C122.2,153.44 125.83,150.33 128.86,150.58 C132.4,150.87 132.92,156.91 134.53,159.65 C136.46,162.94 141.78,162.35 142.75,158.58 C144.350809,152.370522 144.579445,145.886813 143.42,139.58 C142.78,135.88 136.78,135.1 135.2,138.51 C132.2,144.91 127.2,155.94 133.13,162.17 C139.29,168.59 145.74,159.05 146.85,153.41 C148.48,145.15 145.98,136.07 145.14,127.83 C144.04,117.02 143.41,106.18 143.14,95.31 C143.01,89.51 134.37,89.53 134.14,95.31 C133.552103,110.28912 133.936242,125.2906 135.29,140.22 C135.8,145.9 144.2,146.11 144.29,140.22 C144.59,121.22 141.81,102.35 138.98,83.58 C138.4,79.72 132.44,79.27 130.76,82.51 C127.62,88.51 127.25,94.92 127.83,101.61 C128.14,105.22 128.56,108.82 128.93,112.42 C129.05,113.57 130.61,122.47 130.41,122.73 L136.77,122.73 C133.77,119.53 133.91,112.73 133.43,108.58 C132.84,103.52 132.43,98.44 131.78,93.38 C131.2,88.54 130.53,83.71 129.48,78.95 C128.61,74.95 127.81,69.14 124.87,66.08 C122.642438,63.6459635 118.867527,63.4672695 116.42,65.68 C113.61,68.25 114.14,72.94 114.14,76.3 C114.19175,87.1643291 115.097877,98.0077619 116.85,108.73 C117.64,113.73 126.08,112.58 125.69,107.53 L121.42,51.62 C121.02,46.37 114.48,45.74 112.58,50.42 C106.2,66.14 109.34,83.36 105.45,99.57 L114.13,101.96 C118.4,76.01 119.97,48.8 107.98,24.58 C107.170878,23.1990871 105.690499,22.3504379 104.09,22.35 L57.26,20.26 L58.46,29.1 C64.7617252,27.9693679 71.2365903,28.263214 77.41,29.96 L78.63,21.12 C69.971553,21.646165 61.3485562,22.6476745 52.8,24.12 L55.19,32.8 C60.3121897,31.7555433 65.6220973,32.1254393 70.55,33.87 L71.75,25.03 C62.801513,25.8941082 53.9771117,27.75223 45.44,30.57 C41.5728624,31.8274505 37.7887133,33.3270824 34.11,35.06 C32.9981287,35.4859459 31.9460577,36.053997 30.98,36.75 C31.5782158,35.8217052 32.3017109,34.9804318 33.13,34.25 C34.8159837,32.8255351 36.8297464,31.8427089 38.99,31.39 L33.45,25.85 C32.1609257,29.157351 30.047265,32.079986 27.31,34.34 C22.92,38.16 29.31,44.44 33.67,40.7 C37.2746198,37.6451133 41.1971478,34.986511 45.37,32.77 C50.47,30.02 45.93,22.25 40.83,25 L40.83,25 L40.8,25 Z" id="Shape" fill="#7798ED"></path>
                                <path d="M136.27,1.85 C132.27,1.39 128.33,2.44 124.27,2.41 L124.27,11.41 C130.36,11.19 141.6,10.66 146.03,15.63 C150.17703,20.5693522 151.634738,27.2299579 149.93,33.45 C148.27,39.01 156.93,41.39 158.61,35.84 C161.24,27.02 158.7,17.35 153.15,10.14 C147.06,2.23 133.35,2.08 124.27,2.41 C118.5,2.62 118.45,11.41 124.27,11.41 C128.27,11.41 132.21,10.41 136.27,10.85 C142.01,11.51 141.97,2.5 136.27,1.85 L136.27,1.85 L136.27,1.85 Z" id="Shape" fill="#7798ED"></path>
                                <path d="M126.76,127.46 C128.581147,129.771705 129.732973,132.538855 130.09,135.46 C130.42,137.66 130.66,139.58 131.98,141.46 C134.21,144.65 139.37,147.86 143.24,145.98 C152.09,141.7 142.3,125.36 142.53,118.57 L133.53,118.57 C133.635293,132.890597 135.274649,147.158695 138.42,161.13 C139.69,166.78 148.37,164.39 147.1,158.74 C144.146716,145.55179 142.617955,132.08461 142.54,118.57 C142.54,112.77 133.73,112.79 133.54,118.57 C133.487429,122.212114 134.038209,125.837803 135.17,129.3 C136.1,132.4 138.7,137.2 137.52,140.3 L139.63,137.62 L138.75,138.2 L142.22,137.75 C138.48,136.86 139.22,133.53 138.41,130.55 C137.658283,127.778465 136.355681,125.186865 134.58,122.93 C131.11,118.39 123.29,122.87 126.81,127.47 L126.81,127.47 L126.76,127.46 Z" id="Shape" fill="#7798ED"></path>
                                <path d="M43.02,17.21 C31.08,17.62 29.26,28.49 27.54,38 C25.75,47.89 23.99,57.79 22.38,67.72 C19.07,88.14 16.32,108.72 15.2,129.36 C14.76,137.57 14.8,146.75 21.14,152.94 C28.63,160.29 40.63,158.1 46.63,150.16 C52.53,142.43 51.7,131.24 52.33,122 L54.44,91.62 C55.16,81.24 55.21,70.56 56.76,60.26 C57.42,55.88 59.04,46.19 64.01,45.04 L58.43,45.04 L58.16,44.88 L54.39,41.11 C53.9833333,38.7366667 53.8,38.4866667 53.84,40.36 L53.53,44.25 L52.91,52.04 L51.84,65.71 L49.45,95.89 C48.03,113.89 48.21,133.03 41.4,150.03 C39.6,154.54 42.69,159.43 46.23,161.89 C53.38,166.89 63.23,166.16 70.42,161.62 C77.61,157.08 81.62,149.02 83.69,140.94 C88.23,123.23 87.62,104.54 87.63,86.42 L87.63,58.25 L87.63,44.62 C87.63,42.94 88.01,40.86 87.71,39.22 C87.88,40.16 86.31,38.29 87.95,38.32 C87.75,38.32 85.64,40.53 85.2,40.65 C84.2,40.92 81.92,40.35 82.02,40.14 C81.87,40.44 82.55,43.41 82.56,43.97 C82.69,48.76 82.66,53.55 82.64,58.34 C82.6333333,67.86 82.4366667,77.3466667 82.05,86.8 C81.21,108.36 79.5166667,129.86 76.97,151.3 C76.57,154.71 79.22,158.84 82.17,160.37 C89.8336643,164.420563 99.165246,163.569743 105.97,158.2 C113.34,152.6 116.11,144.08 116.87,135.14 C118.4,117.14 117.5,98.65 117.73,80.59 L118.08,52.25 C118.08,48.85 117.36,43.73 118.92,40.53 C119.06,40.24 120.3,38.38 120.16,38.95 C119.619153,39.1452721 119.064213,39.2990505 118.5,39.41 C118.78,41.17 119.63,42.95 119.66,45.19 C119.71,49.82 119.4,54.46 119.24,59.09 L118.24,86.54 L115.97,151.23 L121.17,142.16 C120.545167,142.659801 119.823212,143.024183 119.05,143.23 C113.4,143.75 108.55,147.68 108.55,153.73 C108.55,159 113.37,164.73 119.05,164.23 C124.25,163.75 130.05,162.51 133.9,158.65 C138.31,154.24 137.15,146.2 137.35,140.44 L138.45,109.07 C139.19,88.07 140.63,67 140.63,46 C140.63,36.16 137.63,26.1 128.54,20.94 C119.45,15.78 108.54,19.1 102.54,27.24 C96.03,36.03 97.14,47.74 97.01,58.1 L96.63,89.39 L96.18,124.62 C96.12,129.18 96.81,134.8 95,139.13 C94.6117483,140.111015 93.9905325,140.982776 93.19,141.67 C92.26,142.75 91.63,141.67 92.77,142.28 L97.97,151.35 C100.303333,131.543333 101.93,111.676667 102.85,91.75 C103.303333,81.63 103.57,71.5033333 103.65,61.37 C103.72,52.37 104.97,41.91 101.86,33.37 C98.51,24.15 88.86,17.84 79.06,20.72 C69.69,23.41 66.81,33.02 66.63,41.73 C66.29,61.06 66.68,80.42 66.63,99.73 C66.58,110.21 66.44,120.83 64.38,131.14 C63.79,134.09 61.38,146.87 56.84,143.73 L61.63,155.62 C66.4,143.69 67.63,130.82 68.63,118.11 C69.63,105.19 70.63,92.27 71.7,79.34 C72.77,66.41 74.47,53.34 74.78,40.4 C74.94,33.82 72.08,27.09 65.29,25.05 C58.5,23.01 51.63,26.97 46.97,31.77 C39.52,39.48 36.97,49.99 35.76,60.3 C34.33,72.3 33.93,84.49 33.1,96.55 L31.75,116.13 L31.08,125.92 C30.88,128.84 29.87,132.75 30.43,135.56 C30.53,136.06 29.84,136.91 30.06,137.39 C29.19,135.53 35.66,138 33.67,137.39 C30.3,136.39 37.52,138.12 36.42,138.81 C36.47,138.81 36.06,136.99 36.07,137.92 C36,131.5 36.41,125.1 36.92,118.69 C38.09,104.12 40.01,89.64 42.32,75.21 C43.45,68.21 44.65,61.13 45.9,54.1 C46.5666667,50.2666667 47.2566667,46.4366667 47.97,42.61 L48.63,38.79 L49.33,34.96 C50.03,32.7133333 49.3633333,33.33 47.33,36.81 L42.03,38.24 L43.03,38.24 C56.5,37.73 56.57,16.73 43.03,17.24 L43.03,17.24 L43.02,17.21 Z" id="Shape" fill="#7798ED"></path>
                                <path d="M73.77,53.39 C82.63,50.06 91.99,48.92 101.28,51.13 C106.21,52.31 110.62,54.48 115.33,56.29 C117.63,57.17 124.82,58.08 125.59,58.94 C134.59,69.02 149.45,54.13 140.44,44.09 C136,39.15 130.26,38.87 124.31,37.22 C118.36,35.57 112.94,32.34 106.86,30.88 C94.0308393,27.7847439 80.5712581,28.5713654 68.19,33.14 C62.88,35.14 59.26,40.23 60.86,46.06 C62.26,51.15 68.44,55.4 73.78,53.39 L73.78,53.39 L73.77,53.39 Z" id="Shape" fill="#7798ED"></path>
                                <path d="M130.63,22.07 C100.93,16.5 76.75,35.07 56.15,54.07 C51.32,58.52 47.02,63.59 44.65,69.79 C41.91,76.98 42.65,84.45 43.52,91.91 C45.3266667,106.703333 47.1466667,121.496667 48.98,136.29 C49.67,141.92 53.31,146.79 59.48,146.79 C64.62,146.79 70.68,141.96 69.98,136.29 L65.31,98.62 C64.6,92.83 63.39,86.84 63.57,80.99 C63.72,76.22 66.47,73.14 69.78,69.99 C83.88,56.53 103.78,38.33 125.01,42.32 C130.58,43.32 136.34,40.78 137.93,34.99 C139.34,29.87 136.2,23.12 130.6,22.07 L130.6,22.07 L130.63,22.07 Z" id="Shape" fill="#7798ED"></path>
                                <path d="M14.55,174.13 C11.55,166 12.91,156.45 12.76,147.92 C12.58,137.74 12.4266667,127.56 12.3,117.38 C12.06,97.68 11.9266667,77.9766667 11.9,58.27 L11.9,28.71 C11.9,22.77 11.63,16.71 18.26,14.35 C22.6629734,12.882704 27.1731821,11.759331 31.75,10.99 C41.9,9.04 51.67,10.46 61.84,11.3 C71.5,12.1 81.2,12.37 90.84,12.42 C100.48,12.47 110.25,12.29 119.96,12.19 C129.32,12.09 139.85,10.88 149.07,12.69 C160.57,14.95 158.71,27.32 158.71,36.31 L158.71,66.75 L158.71,125.03 L158.71,155.32 C158.71,159.46 159.07,163.78 158.64,167.91 C157.88,175.24 150.29,175.91 144.34,176.19 C133.71,176.63 122.94,175.24 112.34,175.19 C101.74,175.14 90.96,175.5 80.28,175.88 C69.28,176.27 58.28,176.71 47.28,176.83 C41.78,176.89 36.28,176.83 30.78,176.72 C26.09,176.59 16.07,177.72 12.46,174.4 C11.05,173.08 8.92,175.2 10.34,176.52 C12.6,178.63 15.18,178.91 18.18,179.13 C23.99,179.56 29.81,179.73 35.63,179.82 C46.96,179.98 58.29,179.66 69.63,179.27 C91.63,178.51 113.44,177.75 135.39,178.97 C142.49,179.36 153.8,180.57 159.21,174.63 C161.21,172.39 161.66,169.43 161.78,166.5 C162.02,160.83 161.78,155.11 161.78,149.44 L161.78,83.44 L161.78,32.44 C161.78,28.27 162.05,23.87 160.98,19.79 C159.12,12.71 153.3,9.97 146.44,9.43 C135.79,8.59 124.88,9.18 114.21,9.31 C102.89,9.45 91.57,9.61 80.21,9.31 C68.85,9.01 57.63,7.42 46.28,6.92 C36.491252,6.64614885 26.7365243,8.18886735 17.51,11.47 C9.78,14.15 9,20.36 8.95,27.73 C8.79,53.3433333 8.86,78.9566667 9.16,104.57 C9.28,117.05 9.44666667,129.526667 9.66,142 C9.76,148.09 9.89,154.16 9.81,160.25 C9.75,165.25 9.91,170.16 11.66,174.92 C12.32,176.72 15.22,175.92 14.55,174.12 L14.55,174.12 L14.55,174.13 Z" id="Shape" fill="#000000"></path>
                                <path d="M12.98,174.94 C1.43,171.62 4.72,152.68 4.63,143.62 L4.46,111.72 C4.34,89.83 4.18,67.94 4.11,46.04 C4.11,35.64 3.11,23.48 6.11,13.42 C9.63,2.04 24.53,4.32 33.78,4.33 L99.29,4.45 C111.2,4.45 123.29,3.95 135.14,4.83 C140.49,5.22 147.22,5.42 150.91,9.77 C153.53,12.85 155.33,16.53 157.98,19.59 C159.25,21.05 161.36,18.92 160.1,17.47 C157.59,14.58 155.85,11.1 153.42,8.15 C150.63,4.76 148.11,3.81 143.79,2.96 C132.18,0.68 119.98,1.5 108.21,1.48 L32.77,1.35 C24.55,1.35 13.31,-0.18 6.87,6.26 C0.43,12.7 1.43,25.97 1.23,34.38 C0.63,59.46 1.35,84.62 1.49,109.7 L1.73,153.56 C1.73,162.68 1.43,174.72 12.19,177.84 C12.9777921,178.033139 13.7764101,177.565044 13.9928043,176.78332 C14.2091986,176.001595 13.7649698,175.18946 12.99,174.95 L12.99,174.95 L12.98,174.94 Z" id="Shape" fill="#000000"></path>
                            </g>
                        </g>
                    </g>
                </g>
                <path d="M44,131.710703 C44,149.569477 62.4151213,171.044512 83.5563481,171.044512 C103.417974,171.044512 122,155.74494 122,133.491017 C122,107.843371 107.924394,92.265625 84.5577746,92.265625 C64.2510699,92.265625 44,102.947508 44,131.710703 Z M54.125535,130.041659 C54.125535,110.903285 69.7589158,101.779177 85.89301,101.779177 C100.858773,101.779177 112.041369,113.462487 112.041369,132.155782 C112.041369,151.294156 98.6333809,161.64223 82.8330956,161.64223 C67.978602,161.64223 54.125535,145.118692 54.125535,130.041659 Z" id="O" fill="#314882"></path>
            </g>
        </g>
    </g>
</svg>