<?xml version="1.0" encoding="UTF-8"?>
<svg width="164px" height="186px" viewBox="0 0 164 186" version="1.1" xmlns="http://www.w3.org/2000/svg" xmlns:xlink="http://www.w3.org/1999/xlink">
    <!-- Generator: Sketch 41.2 (35397) - http://www.bohemiancoding.com/sketch -->
    <title>potassium</title>
    <desc>Created with Sketch.</desc>
    <defs></defs>
    <g id="Page-1" stroke="none" stroke-width="1" fill="none" fill-rule="evenodd">
        <g id="Desktop-HD" transform="translate(-1117.000000, -790.000000)">
            <g id="potassium" transform="translate(1117.000000, 790.000000)">
                <path d="M10.4252499,7.80921831 C13.1054508,4.12798703 39.1822185,4.83524439 68.7259376,5.66433998 C79.6174137,5.96999124 92.0014892,6.90232919 105.163867,6.73677915 C118.326246,6.5712291 150.151111,5.72355851 154.094802,13.1714141 C156.676923,18.0478793 153.053718,45.344589 154.094802,79.6626422 C155.135885,113.980695 154.885908,179.471181 153.053718,182.616802 C149.930467,187.978998 11.1232511,181.383198 8,179 C4.87674887,176.616802 2.09658025,24.9682449 3.13766396,17.4611708 C4.17874767,9.95409663 9.78972749,8.68210252 10.4252499,7.80921831 Z" id="Rectangle-8" fill="#F2AE70"></path>
                <g id="P">
                    <g id="Layer_1">
                        <path d="M32.4,9.1 C19.7,4.9 4.6,16.2 6.3,29.9 C12.2,29.1 18.1,28.3 24,27.5 C23.6,25.1 24,23.4 24.3,21.1 C24.5,19.4 26.1,21.9 24.1,20.7 C25.6,15.1 27.1,9.5 28.6,3.9 C20.3,4.4 13.4,8.8 9.3,16 C4.9,23.7 4.9,32.9 4.5,41.5 C3.6,60.1 2.8,78.7 1.9,97.2 C1.1,114.9 -0.3,132.9 1.5,150.6 C3.1,166.4 10.6,183.9 29.1,184 C34.2,184 37.8,179.8 38.1,175 C38.7,165.6 36.2,156.6 33.4,147.8 C30.7,139.2 28.4,130.5 27.2,121.6 C24.8,102.9 25.8,83.9 26.9,65.2 C27.5,55.6 28,46 29.1,36.4 C29.6,31.8 30.3,27.1 31.3,22.5 C31.6,21.2 31.9,19.9 32.3,18.7 C32.3,18.6 33,17.5 33,17.5 C33.3,17.9 31.4,18 31.4,18 C29.6,19.4 31.4,17.1 31.1,18.5 C31.1,18.7 31.4,19.3 31.4,19.6 C31.6,21.8 31.4,24 31.2,26.2 C30.7,31 30.1,35.8 29.6,40.6 C28.6,50.6 28,60.6 27.6,70.6 C26.7,92.6 27.2,114.6 28.9,136.6 C34.8,135.8 40.7,135 46.6,134.2 C42.6,118.5 39.8,102.6 38.4,86.4 C32.5,87.2 26.6,88 20.7,88.8 C23.2,106.4 25.7,124 28.2,141.6 C30.3,156.1 30.3,172.9 43.5,182.2 C45.8,176.7 48.1,171.2 50.4,165.8 C44.5,164.8 39.3,165.4 34.1,168.4 C26.3,172.9 29.8,185.1 38.6,185.2 C67.8,185.5 96.9,184.8 126,183.2 C138.2,182.5 156.7,184.6 162,170.6 C164,165.3 163.4,159.8 163,154.3 C162.4,146.4 162,138.5 161.6,130.6 C161,116.1 160.9,101.6 161.1,87.1 C161.4,73.7 162.6,60.2 162.8,46.8 C163,35.6 161.4,23.8 154.3,14.8 C146.8,5 134.9,2 123,1.9 C116.4,1.8 109.9,2.4 103.3,2.4 C95.2,2.3 87.2,1.7 79.1,1.2 C63.6,0.3 48,0.2 33.1,4.9 C22.1,8.4 26.8,25.8 37.9,22.3 C60.9,15 85.3,21 108.9,20.4 C117.7,20.1 129.6,17.9 137.4,23.1 C144.3,27.7 145,37 145,44.5 C145.1,56 143.8,67.6 143.5,79.1 C143.1,92 143.1,104.8 143.3,117.7 C143.6,130.6 144.3,143.4 145.2,156.2 C145.4,158.5 145.3,160.9 145.5,163.1 C145.8,166.1 144.8,164.4 145.3,164 C146.4,163 145,164 144.2,164 C137.8,164.2 131.4,164.9 125,165.2 C96.2,166.8 67.4,167.4 38.5,167.1 C40,172.7 41.5,178.3 43,183.9 C43.8,183.4 44.5,182.9 45.5,183.1 C55.6,184.7 61,172.7 52.4,166.7 C48.9,164.2 48.4,157.7 47.8,153.9 C46.6,146.3 45.6,138.6 44.5,131 C42.3,115.3 40.1,99.7 37.8,84 C36.4,74 19.3,76.3 20.1,86.4 C21.6,104.1 24.5,121.7 29,139 C31.5,148.6 47.5,146.9 46.7,136.6 C44.9,114 44.5,91.3 45.5,68.7 C46,57.4 46.8,46.1 48.1,34.8 C49.2,24.3 51.4,12.6 42.5,4.7 C34.6,-2.3 22.8,-0.5 17.4,8.5 C12.1,17.3 11.8,29.5 10.8,39.4 C8.6,60.8 7.2,82.8 7.9,104.3 C8.3,116.4 9.6,128.6 12.4,140.5 C15.2,152 20.8,163.2 20,175.3 C23,172.3 26,169.3 29,166.3 C18.3,166.3 19,146.8 18.7,139.8 C18.3,125.7 19.2,111.6 19.8,97.5 C20.5,82.9 21.1,68.3 21.8,53.7 C22.1,46.9 22.2,40.1 22.8,33.3 C23.1,30 24,22.4 28.5,22.1 C37.5,21.4 41,10 33.2,5.2 C26.2,0.9 17.1,2.5 11.5,8.4 C5.2,15 5.2,23.9 6.6,32.3 C8.2,42.2 25.5,40 24.3,29.9 C24,27.7 25.1,25.7 27.6,26.5 C38.7,30.1 43.4,12.7 32.4,9.1 L32.4,9.1 Z" id="Shape" fill="#F2AE70"></path>
                        <path d="M48.7,11 C42.4,16.4 41,24.5 40.3,32.4 C39.6,40.2 39.6,48 39.9,55.8 C40.6,72 42.3,88.1 41.5,104.3 C40.7,119.8 38.5,135.3 39.4,150.8 C39.8,158.1 40.5,166.1 42.9,173.1 C46.6,183.9 61.2,187.1 67.3,176.2 C69.4,172.5 69.5,167.8 67.3,164.1 C67.2,163.9 67.1,163.7 66.9,163.5 C59,150.3 38.2,162.3 46.2,175.6 C46.3,175.8 46.4,176 46.6,176.2 L46.6,164.1 C46.5,164.3 46.3,164.6 46.2,164.8 C48.6,163 51,161.1 53.4,159.3 C53.1,159.4 52.9,159.5 52.6,159.5 C55.7,159.9 58.8,160.3 61.8,160.7 C61.6,160.5 61.3,160.4 61.1,160.2 C62.5,161.6 64,163.1 65.4,164.5 C66.8,166.8 65.4,163.9 65.2,163 C64.9,161.5 64.5,160 64.3,158.5 C63.9,155.9 63.7,153.3 63.5,150.7 C63.2,144.5 63.3,138.3 63.7,132.2 C64.4,120.1 65.8,107.9 65.9,95.8 C66,83.1 64.7,70.4 64.1,57.7 C63.8,51.2 63.6,44.7 64,38.2 C64.1,35.9 64.3,32.1 64.6,30.6 C64.5,31.2 65.1,28.5 65.2,28.1 C64.9,28.8 63.9,29.5 65.8,27.9 C70.7,23.7 70.1,15.3 65.8,10.9 C60.8,6.1 53.7,6.8 48.7,11 L48.7,11 Z" id="Shape" fill="#F2AE70"></path>
                        <path d="M21.2,27.2 C21.6,42.5 22.3,57.8 23.1,73.1 C23.8,84.6 41.8,84.7 41.1,73.1 C40.2,57.8 39.6,42.5 39.2,27.2 C38.9,15.6 20.9,15.6 21.2,27.2 L21.2,27.2 Z" id="Shape" fill="#F2AE70"></path>
                        <path d="M60.4,18.5 C61.2,70.3 62,122 62.7,173.8 C69.6,172.9 76.4,171.9 83.3,171 C78,146.7 75.8,122 76.6,97.1 C77,83.6 56,83.6 55.6,97.1 C54.8,123.8 57.4,150.5 63,176.6 C65.5,188.2 83.8,185.6 83.6,173.8 C82.8,122 82.1,70.2 81.3,18.4 C81.2,5 60.2,4.9 60.4,18.5 L60.4,18.5 Z" id="Shape" fill="#F2AE70"></path>
                        <path d="M75.3,23.9 C78.8,48.3 80.5,72.9 80.7,97.5 C80.8,109.5 80.5,121.5 79.8,133.5 C79.1,145.8 77.8,158 81,170.1 C83,177.3 93.4,177.1 95.5,170.1 C95.9,168.8 96.3,167.5 96.7,166.2 C99.4,156.9 85,153 82.2,162.2 C81.8,163.5 81.4,164.8 81,166.1 L95.5,166.1 C92.4,154.6 94.3,142.4 94.9,130.6 C95.5,118.3 95.8,106 95.6,93.7 C95.3,69 93.2,44.4 89.7,20 C89.1,16 84,13.8 80.5,14.8 C76.2,15.9 74.7,19.9 75.3,23.9 L75.3,23.9 Z" id="Shape" fill="#F2AE70"></path>
                        <path d="M85.1,25.4 C90.8,50.6 93.9,76.3 94.2,102.1 C94.3,114.9 93.8,127.6 92.7,140.3 C92.1,146.5 91.4,152.7 91.1,159 C90.8,164.9 89.8,172.1 94.3,176.6 C96,178.3 99.2,179.5 101.6,178.5 C104.8,177.2 106.7,175.7 107.7,172.3 C108.7,168.8 107,165.8 104.3,163.8 C104.2,163.7 104,163.6 103.9,163.5 C100.6,161.1 95.6,163 93.6,166.2 C91.3,170 93,174.1 96.3,176.5 C96.4,176.6 96.6,176.7 96.7,176.8 C95.6,174 94.4,171.2 93.3,168.3 C93.2,168.5 93.2,168.8 93.1,169 C94.8,167.3 96.6,165.5 98.3,163.8 C98.1,163.9 97.9,164 97.7,164.1 C100.1,164.7 102.6,165.4 105,166 C107,168 106,166.5 106,164.6 C106,163 106,161.5 106.1,159.9 C106.2,156.8 106.5,153.7 106.8,150.6 C107.4,144.6 108,138.7 108.4,132.7 C109.3,120.3 109.5,107.8 109.2,95.4 C108.5,70.5 105.2,45.7 99.7,21.4 C97.4,12 83,16 85.1,25.4 L85.1,25.4 Z" id="Shape" fill="#F2AE70"></path>
                        <path d="M96.5,21.2 C101.6,47 104.6,73 105.6,99.2 C106.1,112.1 106.1,125.1 105.6,138.1 C105.4,144.6 104.9,151 104.5,157.5 C104.2,162.5 105.4,168.1 110.4,170.4 C119.1,174.6 126.7,161.6 118,157.4 C119.6,158.2 119.4,160.9 119.6,157.4 C119.7,155.8 119.8,154.2 119.9,152.6 C120.1,149.7 120.3,146.8 120.4,143.9 C120.7,138.1 120.9,132.2 121,126.4 C121.2,114.1 120.9,101.8 120.2,89.5 C118.8,65.2 115.7,41 111,17.2 C109.2,7.7 94.7,11.7 96.5,21.2 L96.5,21.2 Z" id="Shape" fill="#F2AE70"></path>
                        <path d="M109.6,22 C114.3,47.2 116.6,72.8 116.6,98.4 C116.6,111 115.9,123.7 114.8,136.3 C113.6,149 112.2,161.6 113.5,174.3 C114.5,183.7 128.2,184.1 128.5,174.3 C128.6,172.3 128.6,170.3 128.7,168.3 C129,158.6 114,158.7 113.7,168.3 C113.6,170.3 113.6,172.3 113.5,174.3 L128.5,174.3 C127.2,161.6 128.7,149 129.8,136.3 C131,123.1 131.7,109.8 131.6,96.5 C131.6,70.2 128.9,43.9 124.1,18 C122.3,8.5 107.8,12.5 109.6,22 L109.6,22 Z" id="Shape" fill="#F2AE70"></path>
                        <path d="M121.8,25.1 C128.2,70.7 129.3,116.9 125.5,162.7 C124.7,172.3 139.7,172.3 140.5,162.7 C144.4,115.4 142.8,68 136.2,21.1 C135.6,17.1 130.5,14.9 127,15.9 C122.7,17.1 121.2,21 121.8,25.1 L121.8,25.1 Z" id="Shape" fill="#F2AE70"></path>
                        <path d="M130,30.7 C146.5,74.7 131.4,122.9 141,168.2 C143,177.6 157.5,173.6 155.5,164.2 C145.9,118.8 161.2,71.1 144.5,26.7 C141.1,17.7 126.6,21.6 130,30.7 L130,30.7 Z" id="Shape" fill="#F2AE70"></path>
                        <path d="M16.2,178.8 C13.2,170.5 14.6,160.8 14.4,152.2 C14.2,142 14.1,131.8 13.9,121.6 C13.7,101.5 13.5,81.4 13.5,61.3 L13.5,31.6 C13.5,26.6 12.7,20.1 17.5,17 C21.3,14.6 27.2,13.9 31.5,12.9 C41.6,10.7 51.2,11.7 61.4,12.7 C71.4,13.6 81.4,13.9 91.4,14 C101.1,14.1 110.8,13.9 120.5,13.8 C129.9,13.7 139.8,13 149.2,14.1 C161.9,15.7 160.2,28.4 160.2,38.1 L160.2,67.2 L160.2,125.8 L160.2,156.6 C160.2,161.4 160.4,166.2 160.2,171 C159.9,177.9 155.4,179.9 149.2,180.6 C138.5,181.9 127.2,180 116.4,179.9 C105.2,179.8 94,180.1 82.8,180.5 C71.6,180.9 60.4,181.4 49.2,181.5 C43.6,181.6 38,181.5 32.4,181.4 C27.7,181.3 17.5,182.5 13.9,179 C12.5,177.7 10.4,179.8 11.8,181.1 C14,183.2 16.6,183.5 19.6,183.8 C25.5,184.2 31.4,184.4 37.3,184.5 C48.8,184.7 60.3,184.3 71.8,183.9 C94.4,183.1 116.7,182.8 139.3,183.8 C145.9,184.1 156.7,184.7 161.1,178.4 C162.9,175.8 163,172.6 163,169.5 C163.1,163.5 163,157.5 163,151.5 L163,83.6 L163,49.6 C163,40.6 164.5,30.1 162.2,21.3 C160.3,13.8 154.1,11.2 146.9,10.7 C135.8,10 124.6,10.5 113.5,10.6 C102.5,10.7 91.5,10.9 80.5,10.5 C69.1,10.2 57.9,8.5 46.5,8.1 C37.1,7.8 26,9.5 17.3,13.3 C9.8,16.6 10.2,24.1 10.1,31.3 C10,57 10.1,82.7 10.3,108.4 C10.4,120.9 10.6,133.4 10.8,146 C10.9,152.1 11,158.3 10.9,164.4 C10.8,169.5 11,174.5 12.8,179.3 C14,181.4 16.9,180.6 16.2,178.8 L16.2,178.8 Z" id="Shape" fill="#000000"></path>
                        <path d="M14.6,179.6 C3.1,176.2 6.3,157 6.3,147.9 C6.2,136.9 6.2,126 6.1,115 C6,92.7 5.8,70.5 5.8,48.2 C5.8,37.7 5,25.9 7.7,15.7 C10.8,3.8 24.8,5.7 34.5,5.7 C56.3,5.7 78.1,5.8 100,5.8 C112.2,5.8 124.6,5.3 136.8,6.2 C142.1,6.6 148.9,6.8 152.6,11.2 C155.2,14.3 157,18.1 159.7,21.2 C161,22.7 163.1,20.5 161.8,19.1 C159.3,16.1 157.6,12.6 155.1,9.6 C152.1,5.9 149.3,5 144.6,4.1 C133.3,2 121.4,2.8 110,2.8 C84.2,2.8 58.4,2.7 32.6,2.7 C24.7,2.7 14.1,1.5 8.2,8.2 C2,15.2 3.2,28.7 3,37.3 C2.5,62.8 3.1,88.4 3.3,114 C3.4,128.6 3.5,143.3 3.5,157.9 C3.5,167.1 3.2,179.3 14,182.5 C15.7,183.1 16.5,180.2 14.6,179.6 L14.6,179.6 Z" id="Shape" fill="#000000"></path>
                    </g>
                </g>
            </g>
        </g>
    </g>
</svg>