<?xml version="1.0" encoding="UTF-8"?>
<svg width="163px" height="184px" viewBox="0 0 163 184" version="1.1" xmlns="http://www.w3.org/2000/svg" xmlns:xlink="http://www.w3.org/1999/xlink">
    <!-- Generator: Sketch 41.2 (35397) - http://www.bohemiancoding.com/sketch -->
    <title>Calcium</title>
    <desc>Created with Sketch.</desc>
    <defs></defs>
    <g id="Page-1" stroke="none" stroke-width="1" fill="none" fill-rule="evenodd" opacity="0">
        <g id="Desktop-HD" transform="translate(-1128.000000, -245.000000)">
            <g id="Calcium" transform="translate(1128.000000, 245.000000)">
                <path d="M8.6272134,5.12485415 C11.4124185,1.52866568 38.5108145,2.21958417 69.2119891,3.02952622 C80.5301684,3.32811641 93.3994238,4.23891574 107.077474,4.07719018 C120.755524,3.91546463 153.827216,3.0873767 157.925411,10.363174 C160.608694,15.1269844 156.84354,41.7930928 157.925411,75.3183397 C159.007282,108.843586 158.747511,172.821129 156.84354,175.89408 C153.597927,181.1324 5.38160041,175.89408 5.38160041,175.89408 C5.38160041,175.89408 -0.0277545593,21.8874776 1.05411644,14.5538298 C2.13598743,7.22018207 7.96679265,5.97757322 8.6272134,5.12485415 Z" id="Rectangle-8" fill="#B1E8EF"></path>
                <g id="CA-01" transform="translate(1.000000, 0.000000)">
                    <g id="Layer_2">
                        <path d="M30.69,8.51 C24.83,-5.64 6.69,9.93 7.95,20.6 L19.13,17.6 C18.36,15.82 19.79,14.31 21.02,13.31 L11.6,6 C3.43,23.29 6.45,42.88 6.3,61.38 C6.13,82.27 4.79,103.14 4.92,124.04 C4.92891393,134.273461 5.45625644,144.499901 6.5,154.68 C7.35,162.57 6.83,174.68 15.07,178.68 C23.68,182.85 35.32,183.28 44.71,183.42 C55.09,183.57 65.49,182.84 75.85,182.42 C96.92,181.52 118.1,181.17 139.13,179.7 C147.36,179.13 154.24,175.89 156.94,167.58 C159.74,158.97 158.3,148.74 157.77,139.89 C157.12,129.08 156.32,118.3 157.03,107.47 C157.71,97.05 159.09,86.72 159.17,76.27 C159.25,65.65 158.57,55.03 158.03,44.43 L157.32,30.5 C157.09,26.03 157.1,21.27 155.11,17.16 C151.11,8.88 141.91,6.93 133.49,6.71 C121.83,6.4 110.12,6.64 98.49,6.71 C74.05,6.90333333 49.6233333,7.38333333 25.21,8.15 C17.51,8.4 17.47,20.4 25.21,20.15 C44.01,19.5433333 62.8166667,19.1133333 81.63,18.86 C91.1966667,18.74 100.766667,18.6666667 110.34,18.64 C118.93,18.64 127.75,18.07 136.34,18.81 C138.96,19.04 142.48,19.48 144.1,21.81 C146.1,24.75 145.37,30.81 145.54,34.17 C146,43.31 146.54,52.44 146.9,61.58 C147.355873,70.6867004 147.279075,79.8122618 146.67,88.91 C145.95,98.36 144.67,107.74 144.74,117.23 C144.74,126.43 145.62,135.59 146.08,144.77 C146.3,149.26 146.49,153.77 146.34,158.26 C146.24,161.21 146.12,165.39 143.15,166.96 C140.4,168.41 135.82,167.8 132.81,167.96 L118.09,168.59 L89.63,169.81 C71.36,170.59 52.45,172.81 34.22,170.81 C30.68,170.42 23.88,170.21 20.88,168.08 C20.08,167.51 20.23,168.18 20.17,166.38 C20.09,163.79 19.31,161.05 18.98,158.47 C17.8484334,149.279785 17.1875705,140.037716 17,130.78 C16.53,110.22 17.77,89.67 18.17,69.11 C18.37,59.18 18.17,49.27 17.98,39.34 C17.81,30.12 17.92,20.57 21.98,12.07 C24.98,5.77 17.9,0.47 12.56,4.8 C6.67,9.55 5.91,17 8.77,23.63 C11.09,28.97 20.63,26.39 19.95,20.63 C19.74,18.83 20.2,18.2 21.41,16.87 C21.9096186,16.3167661 22.4404864,15.7925759 23,15.3 C24.4666667,14.4733333 23.98,14.2 21.54,14.48 L18.78,10.89 L19.12,11.7 C22.03,18.7 33.65,15.7 30.69,8.51 L30.69,8.51 L30.69,8.51 Z" id="Shape" fill="#B1E8EF"></path>
                        <path d="M21.78,16.64 C19.5267868,26.8692854 18.0955544,37.2624398 17.5,47.72 C17.39,49.65 20.39,49.64 20.5,47.72 C21.0803213,37.5349192 22.4747721,27.412611 24.67,17.45 C25.08,15.57 22.19,14.76 21.78,16.65 L21.78,16.65 L21.78,16.64 Z" id="Shape" fill="#B1E8EF"></path>
                        <path d="M19.79,16.64 C18.0684039,25.9904143 17.3376963,35.4963169 17.61,45 C17.67,46.93 20.67,46.93 20.61,45 C20.3278202,35.7627609 21.0216658,26.5215422 22.68,17.43 C23.03,15.54 20.13,14.73 19.79,16.63 L19.79,16.63 L19.79,16.64 Z" id="Shape" fill="#B1E8EF"></path>
                        <path d="M11.62,11.12 C8.69650848,15.6480112 7.15699209,20.9303248 7.19,26.32 L10.19,26.32 C10.001052,20.941175 10.5256166,15.5610252 11.75,10.32 C12.12,8.75 9.75,7.55 9.01,9.16 C5.81123242,16.0984459 4.22491083,23.6710802 4.37,31.31 C4.37,33.31 7.17,33.19 7.37,31.31 L9.45,11.86 C9.63,10.15 6.93,9.86 6.5,11.46 C2.29,27.13 3.71,44.46 3.35,60.58 C2.96,78.14 2.57,95.71 3.49,113.27 C3.59,115.19 6.59,115.2 6.49,113.27 C5.6,96.37 5.93,79.46 6.3,62.55 C6.49333333,54.0233333 6.68333333,45.4966667 6.87,36.97 C7.06,28.63 7.21,20.36 9.39,12.26 L6.44,11.86 L4.37,31.35 L7.37,31.35 C7.20891074,24.2393521 8.65483811,17.184047 11.6,10.71 L8.86,9.55 C7.56869701,15.0389143 7.00718568,20.6742017 7.19,26.31 C7.19,27.1384271 7.86157288,27.81 8.69,27.81 C9.51842712,27.81 10.19,27.1384271 10.19,26.31 C10.1393843,21.4545271 11.5315424,16.6933462 14.19,12.63 C15.19,11 12.63,9.49 11.6,11.12 L11.6,11.12 L11.62,11.12 Z" id="Shape" fill="#B1E8EF"></path>
                        <path d="M2.17,127.64 L2.17,134.21 L11.17,134.21 C10.8149791,125.337606 11.1895727,116.451042 12.29,107.64 L3.29,107.64 C4.29,128.51 0.95,149.64 6.45,170.09 C7.96,175.7 16.45,173.33 15.13,167.7 C14.22,163.7 13.5,159.7 12.94,155.6 C12.21,150.27 4.49,152.1 4.1,156.8 C3.75411372,160.901066 4.26842374,165.02917 5.61,168.92 C7.51,174.5 15.17,172.18 14.29,166.53 L13,157.73 C12.19,152.58 4.28,154.04 4.16,158.93 C3.94,168.23 7.55,180.22 18.38,181.71 C22.15,182.23 26.38,180.83 27.67,176.95 C29.17,172.59 25.73,167.49 23.52,163.95 L17.36,170.11 L28.94,176.75 C33.94,179.64 38.51,171.86 33.48,168.98 L21.9,162.34 C18.08,160.15 13.32,164.6 15.74,168.5 C16.66,169.98 17.45,172.5 18.62,173.76 C20.5733333,173.093333 20.63,172.713333 18.79,172.62 C17.9880665,172.323229 17.268247,171.839921 16.69,171.21 C13.25,168.13 13.05,163.21 13.15,158.96 L4.31,160.16 L5.69,168.96 L14.37,166.57 C13.2787648,163.449859 12.8728812,160.131163 13.18,156.84 L4.31,158 C4.86,162.07 5.59,166.09 6.5,170.1 L15.18,167.71 C9.91,148.09 13.29,127.71 12.34,107.65 C12.06,101.72 4.04,102.02 3.34,107.65 C2.23957272,116.461042 1.86497912,125.347606 2.22,134.22 C2.45,139.98 11.22,140.04 11.22,134.22 L11.22,127.65 C11.22,121.86 2.22,121.85 2.22,127.65 L2.22,127.65 L2.17,127.64 Z" id="Shape" fill="#B1E8EF"></path>
                        <path d="M16.39,45 C15.93,58.8466667 16.13,72.6833333 16.99,86.51 C17.35,92.26 26.35,92.3 25.99,86.51 C25.13,72.6833333 24.93,58.8466667 25.39,45 C25.58,39.21 16.58,39.21 16.39,45 L16.39,45 Z" id="Shape" fill="#B1E8EF"></path>
                        <path d="M35.2,43.46 C31.1231871,76.0357954 31.0023089,108.985169 34.84,141.59 C35.51,147.27 44.52,147.34 43.84,141.59 C40.0023089,108.985169 40.1231871,76.0357954 44.2,43.46 C44.92,37.73 35.91,37.78 35.2,43.46 L35.2,43.46 L35.2,43.46 Z" id="Shape" fill="#B1E8EF"></path>
                        <path d="M46.21,61.32 C43.3242044,93.9633698 43.253945,126.794578 46,159.45 C46.48,165.19 54.66,165.29 55,159.45 L55.39,152.85 C55.73,147.06 46.73,147.08 46.39,152.85 L46,159.45 L55,159.45 C52.2533699,126.791263 52.3236294,93.9566839 55.21,61.31 C55.72,55.54 46.72,55.58 46.21,61.31 L46.21,61.31 L46.21,61.32 Z" id="Shape" fill="#B1E8EF"></path>
                        <path d="M33.71,77.93 C29.570319,94.7846372 27.6507364,112.107946 28,129.46 C28.18,137.21 28.24,145.64 31.16,152.93 C33.16,157.93 37.87,164.45 43.47,159.52 C47.83,155.69 41.47,149.34 37.11,153.16 L36.53,153.67 L40.91,152.51 C39.7,152.21 38.61,146.89 38.38,145.86 C37.7994472,142.938837 37.4516884,139.976199 37.34,137 C36.94,130.74 36.86,124.47 37.08,118.2 C37.5645589,105.436781 39.3402832,92.7554296 42.38,80.35 C43.74,74.72 35.07,72.35 33.7,77.96 L33.7,77.96 L33.71,77.93 Z" id="Shape" fill="#B1E8EF"></path>
                        <path d="M21.1,98.93 C19.7531399,113.195477 20.5282292,127.581809 23.4,141.62 C25.59,152.3 29.54,168.18 42.33,170.33 C48,171.33 50.43,162.61 44.72,161.65 C34.32,159.9 32.39,141.93 31.05,133.65 C29.2652639,122.166866 28.9460436,110.503565 30.1,98.94 C30.64,93.18 21.64,93.21 21.1,98.94 L21.1,98.94 L21.1,98.93 Z" id="Shape" fill="#B1E8EF"></path>
                        <path d="M19.36,151 C18.44,161.57 25.84,170.42 35.16,174.41 C46.82,179.41 59.58,177.18 71.79,179.04 C76.31,179.73 80.39,173.04 75.26,170.82 L60.26,164.45 L58,172.8 C86.44,172.46 115.6,179.8 143.31,170.42 C148.77,168.58 146.43,159.88 140.92,161.74 C114,170.8 85.52,163.46 58,163.8 C53.9,163.8 51.4,170.35 55.73,172.19 L70.73,178.56 L74.2,170.34 C61.08,168.34 26.47,172.95 28.38,150.98 C28.88,145.21 19.88,145.24 19.38,150.98 L19.38,150.98 L19.36,151 Z" id="Shape" fill="#B1E8EF"></path>
                        <path d="M55.42,35.26 C52.0280224,58.6644458 50.0843246,82.2559938 49.6,105.9 C49.49,111.69 58.49,111.69 58.6,105.9 C59.0279932,83.0618589 60.8648168,60.2718875 64.1,37.66 C64.92,31.99 56.24,29.55 55.42,35.27 L55.42,35.27 L55.42,35.26 Z" id="Shape" fill="#B1E8EF"></path>
                        <path d="M52.84,38 C51.09,61.81 49.63,85.91 55.74,109.26 C57.2,114.86 65.89,112.48 64.42,106.87 C58.52,84.33 60.15,61 61.84,38 C62.27,32.22 53.26,32.25 52.84,38 L52.84,38 Z" id="Shape" fill="#B1E8EF"></path>
                        <path d="M73.77,40.35 C73.64,56.21 76,71.85 78.04,87.53 C80.12,103.53 81.22,119.66 82.2,135.79 C82.55,141.55 91.55,141.58 91.2,135.79 C90.2,119.66 89.13,103.56 87.04,87.53 C85.04,71.85 82.64,56.2 82.77,40.35 C82.77,34.56 73.77,34.55 73.77,40.35 L73.77,40.35 Z" id="Shape" fill="#B1E8EF"></path>
                        <path d="M79.44,44 C84.7733333,73.14 89.1066667,102.43 92.44,131.87 C93.09,137.56 102.1,137.62 101.44,131.87 C97.9933333,101.643333 93.5466667,71.5566667 88.1,41.61 C87.1,35.92 78.39,38.33 79.42,44 L79.42,44 L79.44,44 Z" id="Shape" fill="#B1E8EF"></path>
                        <path d="M89.65,58.59 C89.3,77.03 92.99,95.14 94.07,113.49 C94.7569804,122.61123 94.2696607,131.782923 92.62,140.78 C91.9,144.38 90.93,148.07 91.03,151.78 C91.0640792,153.757673 91.4326165,155.715316 92.12,157.57 C92.61,158.85 94.53,160.85 94.43,162.21 L97.73,157.87 L94.26,158.54 C90.46,159.28 89.89,165.01 93.19,166.76 L94.19,167.42 C95.97,169.83 98.91,170.42 101.26,168.33 C109.95,160.63 109.44,146.26 110.57,135.66 C112.136667,120.88 113.286667,106.06 114.02,91.2 C114.36,84.32 114.79,77.39 114.6,70.51 C114.45,65.04 114.27,58.13 111.4,53.31 C108.53,48.49 102.07,48.71 99.78,43.46 C97.05,37.21 101.12,31.28 105.92,27.46 C108.92,25.09 106.46,19.46 102.74,19.78 C96.1332925,20.2435019 89.8617909,22.8645328 84.89,27.24 C80.81,30.75 86,36.44 90.34,34.31 C94.2182467,32.3974434 97.1424369,28.9780566 98.43,24.85 C99.43,21.96 96.82,19.27 94.09,19.15 C90.1596313,18.9705956 86.2279467,19.4747445 82.47,20.64 C76.95,22.33 79.3,31.02 84.86,29.32 C87.8436385,28.3889398 90.9684182,27.992841 94.09,28.15 L89.75,22.45 C89.0844857,24.3167166 87.6441956,25.8044086 85.8,26.53 L91.25,33.6 C94.4590311,30.7932306 98.4894009,29.099002 102.74,28.77 L99.56,21.09 C91.34,27.55 86.86,39.02 92.34,48.71 C93.6218297,51.0077528 95.3979133,52.9921846 97.54,54.52 C99.61,55.97 102.78,56.44 104.07,58.76 C105.64,61.58 105.46,66.4 105.58,69.57 C105.7,72.74 105.58,76.11 105.52,79.37 C105.046667,93.8633333 104.15,108.336667 102.83,122.79 C102.163333,130.03 101.413333,137.26 100.58,144.48 C99.87,150.48 99.75,157.63 94.9,161.92 L101.97,162.83 C100.883332,161.213383 99.4262358,159.879711 97.72,158.94 L96.65,167.16 L100.12,166.49 C102.12,166.1 103.29,164.03 103.42,162.15 C103.7,158.07 100.31,155.65 100.01,151.72 C99.71,147.79 101.31,143.43 101.96,139.47 C103.280786,130.870024 103.646341,122.150347 103.05,113.47 C101.97,95.12 98.29,77.01 98.63,58.57 C98.74,52.78 89.74,52.78 89.63,58.57 L89.63,58.57 L89.65,58.59 Z" id="Shape" fill="#B1E8EF"></path>
                        <path d="M23,10.59 C62.68,11.51 103.34,9.78 142.29,18.53 C147.93,19.8 150.34,11.12 144.68,9.85 C104.89,0.91 63.51,2.53 23,1.59 C17.21,1.46 17.21,10.46 23,10.59 L23,10.59 Z" id="Shape" fill="#B1E8EF"></path>
                        <path d="M96.33,21.24 C97.82,21.24 100.2,24.24 101.33,25.24 L107.7,30.77 C111.23,33.83 115.7,36.77 117.59,41.13 C119.89,46.43 127.65,41.85 125.36,36.59 C122.78,30.65 116.69,26.69 111.94,22.59 C107.51,18.75 102.64,12.46 96.37,12.29 C90.58,12.14 90.58,21.14 96.37,21.29 L96.37,21.29 L96.33,21.24 Z" id="Shape" fill="#B1E8EF"></path>
                        <path d="M110.92,26.73 C107.904572,39.1786166 106.277978,51.923064 106.07,64.73 C106.07,67.5 109.01,70.04 111.77,69.07 C113.743939,68.5851538 115.285154,67.0439394 115.77,65.07 C117.37,59.49 108.69,57.07 107.09,62.68 L106.9,63.35 L110,60.13 L109.34,60.36 L115.04,64.7 C115.228381,52.7088855 116.74769,40.775766 119.57,29.12 C120.93,23.49 112.26,21.12 110.89,26.73 L110.89,26.73 L110.92,26.73 Z" id="Shape" fill="#B1E8EF"></path>
                        <path d="M110,28.28 C111.933333,46.86 112.966667,65.4966667 113.1,84.19 C113.1,89.98 122.1,89.99 122.1,84.19 C121.966667,65.5233333 120.933333,46.8866667 119,28.28 C118.41,22.58 109.4,22.52 110,28.28 L110,28.28 Z" id="Shape" fill="#B1E8EF"></path>
                        <path d="M119.88,30.29 C120.625438,38.4407938 120.835889,46.6316803 120.51,54.81 C120.18,62.6 118.51,70.54 119.22,78.32 C119.65,82.94 127.22,84.92 128.06,79.52 L128.93,74.13 C129.84,68.46 121.17,66.02 120.25,71.74 L119.38,77.13 L128.22,78.33 C127.49,70.54 129.22,62.61 129.51,54.82 C129.831847,46.6416522 129.621403,38.4510294 128.88,30.3 C128.37,24.58 119.37,24.52 119.88,30.3 L119.88,30.3 L119.88,30.29 Z" id="Shape" fill="#B1E8EF"></path>
                        <path d="M125.38,33.73 L124.38,47.01 L124,52.7 C123.880246,54.6548343 123.880246,56.6151657 124,58.57 L127.18,57.25 L126.6,57.25 C120.81,57.15 120.81,66.15 126.6,66.25 C132.6,66.36 132.48,59.87 132.79,55.56 L134.38,33.75 C134.8,27.97 125.8,28 125.38,33.75 L125.38,33.75 L125.38,33.73 Z" id="Shape" fill="#B1E8EF"></path>
                        <path d="M116.07,12.26 C121.86,12.26 121.87,3.26 116.07,3.26 C110.27,3.26 110.27,12.26 116.07,12.26 L116.07,12.26 Z" id="Shape" fill="#B1E8EF"></path>
                        <path d="M118.35,11.65 C122.07,9.17 127.26,10.65 131.35,11.25 C136.26,12 141.14,12.91 146,13.94 C151.65,15.13 154.07,6.46 148.39,5.26 C141.92,3.89 135.39,2.75 128.86,1.88 C123.59,1.18 118.39,0.8 113.78,3.88 C108.99,7.08 113.49,14.88 118.32,11.65 L118.32,11.65 L118.35,11.65 Z" id="Shape" fill="#B1E8EF"></path>
                        <path d="M114.91,2.49 L109.07,2.49 C107.3,2.49 105.01,3.88 104.73,5.79 C105.61,3.95666667 107.083333,3.40333333 109.15,4.13 C107.008157,2.91795335 104.289935,3.65131594 103.048375,5.7761872 C101.806816,7.90105845 102.502507,10.6291657 104.61,11.9 C107.78,13.83 112.83,12.15 113.41,8.18 L109.07,11.48 L114.91,11.48 C117.395281,11.48 119.41,9.46528137 119.41,6.98 C119.41,4.49471863 117.395281,2.48 114.91,2.48 L114.91,2.48 L114.91,2.49 Z" id="Shape" fill="#B1E8EF"></path>
                        <path d="M113.86,93.15 L116.13,79.66 L107.91,80.73 C118.04,103.89 111.22,130.73 114.91,155.11 C115.73,160.49 123.3,158.56 123.75,153.91 L124.04,150.91 C124.6,145.15 115.59,145.19 115.04,150.91 L114.75,153.91 L123.59,152.71 C119.68,127.08 126.38,100.71 115.65,76.18 C114.14,72.74 108.04,73.57 107.43,77.25 L105.16,90.74 C104.16,96.41 112.88,98.84 113.84,93.13 L113.84,93.13 L113.86,93.15 Z" id="Shape" fill="#B1E8EF"></path>
                        <path d="M132.1,72.59 C135.94,98.24 128.32,124.02 132.1,149.74 C132.83,154.74 141.39,153.59 140.94,148.54 L139.6,133.45 C139.09,127.73 130.09,127.67 130.6,133.45 L131.94,148.54 L140.78,147.34 C137,121.68 144.62,95.91 140.78,70.19 C139.93,64.48 131.25,66.91 132.1,72.58 L132.1,72.58 L132.1,72.59 Z" id="Shape" fill="#B1E8EF"></path>
                        <path d="M130.76,96.22 C129.66,117.2 127.72,138.106667 124.94,158.94 C124.24,164.16 132.3,164.73 133.78,160.14 C134.73299,157.157706 135.238488,154.050582 135.28,150.92 C135.39,145.13 126.39,145.13 126.28,150.92 C126.233938,153.243203 125.836088,155.546011 125.1,157.75 L133.94,158.95 C136.713333,138.123333 138.653333,117.216667 139.76,96.23 C140.06,90.44 131.06,90.46 130.76,96.23 L130.76,96.23 L130.76,96.22 Z" id="Shape" fill="#B1E8EF"></path>
                        <path d="M124.37,119.1 C124.170209,127.044708 124.561287,134.993276 125.54,142.88 C126.39,149.61 126.97,157.39 130.26,163.46 C132.82,168.19 137.69,172.06 143.31,171.81 C149.226061,171.513438 153.787429,166.48699 153.51,160.57 L144.67,161.77 C145.29,163.29 148.02,169.13 146.74,170.46 C145.86,171.38 138.74,169.68 137.46,169.52 C132.46,168.91 131.24,177.67 136.26,178.36 C142.38,179.2 151.61,182.06 156.67,176.8 C158.97,174.41 159.25,171.34 158.92,168.22 C158.4,163.22 157.21,158.22 156.34,153.22 C155.34,147.53 146.67,149.94 147.66,155.61 L149,163.23 C149.29,164.89 150.28,167.35 150,168.94 C149.32,172.86 141.31,170.04 138.66,169.68 L137.46,178.52 C142.69,179.16 149.71,181.08 153.75,176.52 C157.79,171.96 155.34,164.25 153.34,159.37 C151.58,155.09 144.18,155.03 144.5,160.57 C144.72,164.43 140.71,162.32 139.44,160.99 C138.246328,159.581676 137.40635,157.908578 136.99,156.11 C135.954556,152.304731 135.205792,148.427202 134.75,144.51 C133.585891,136.089552 133.120969,127.587174 133.36,119.09 C133.49,113.3 124.49,113.3 124.36,119.09 L124.36,119.09 L124.37,119.1 Z" id="Shape" fill="#B1E8EF"></path>
                        <path d="M23.59,19.62 C19.5885841,40.8555924 17.2481652,62.3707284 16.59,83.97 C16.16,94.84 16,105.72 16,116.6 C16,127.1 15.58,137.77 16.33,148.25 C16.84,155.25 18.16,168.5 26.9,170.09 C37.25,171.97 38.9,157.65 39.43,150.57 C40.13,140.57 38.1,130.57 36.91,120.69 C35.5766667,109.816667 34.74,98.9033333 34.4,87.95 C33.68,66.23 33.66,42.8 45.82,23.87 L39.04,26.63 C37.96,26.36 38.77,25.48 38.82,27.43 L38.82,29.66 C38.73,32.48 38.37,35.32 38.17,38.14 C37.7633333,44.0466667 37.4033333,49.9633333 37.09,55.89 C36.4233333,68.07 36.04,80.2633333 35.94,92.47 C35.7066667,116.543333 36.5,140.593333 38.32,164.62 L44.32,158.62 L38.32,158.03 C33.76,157.58 30.88,163.45 33.14,167.03 C37.3296522,173.779967 45.7245407,176.600649 53.14,173.75 C61.97,170.28 63.83,160.65 63.14,152.16 C61.36,129.16 57.14,106.46 55.45,83.46 C54.5652642,71.9937398 54.4583528,60.4807129 55.13,49 C55.4697932,43.1637651 56.137514,37.3512558 57.13,31.59 C57.42,29.98 57.44,27.2 58.47,25.89 C57.01,27.77 59.55,24.69 58.86,24.84 C59.71,24.66 61.02,27.15 61.31,27.84 C63.38,32.84 61.62,39.25 60.51,44.23 C59.1998221,49.5777675 58.244408,55.006257 57.65,60.48 C56.65,71.7 57.45,83.14 57.65,94.39 C58.06,119.7 56.9,145.91 63.95,170.48 C65.09,174.48 69.27,175.69 72.76,174.07 C77.65,171.79 79.76,166.47 79.48,161.3 C79.31,158.3 78.25,155.39 77.78,152.42 C77.312888,148.842888 77.0990225,145.237249 77.14,141.63 C76.89,127.95 74.87,114.56 72.97,101.03 C71.07,87.5 70.19,74.16 71.53,60.58 C72.93,46.36 76.23,32.39 79.43,18.49 L70.62,22.08 C73.78,23.91 71.97,33.24 71.71,36.19 C71.15,42.53 70.3,48.83 69.79,55.19 C68.7769017,68.0038644 68.5331308,80.8669514 69.06,93.71 C70.1121653,119.007626 74.044207,144.10291 80.78,168.51 C81.92,172.65 87.78,174.61 90.78,171.16 C102.02,158.38 97.14,140.73 95.09,125.56 C92.4233333,105.766667 90.45,85.8966667 89.17,65.95 C88.56,56.55 87.68,46.95 87.93,37.56 C87.9511968,35.5451599 88.1587478,33.5366011 88.55,31.56 C88.6,31.33 89.74,26.95 89.55,27 C92.08,26.2 92.71,38.07 92.7,39.23 C92.7,48.87 91.27,58.47 91.23,68.13 C91.19,77.79 91.71,87.55 92.54,97.22 C93.48,108.22 94.81,119.22 96.14,130.16 C96.81,135.64 97.48,141.16 98.14,146.61 C98.67,151.27 100.09,157.26 98.14,161.74 C96.53,165.38 97.74,169.24 101.73,170.55 C105.752318,171.913797 110.17857,171.349449 113.73,169.02 C115.989241,167.610889 117.061632,164.890354 116.371556,162.31867 C115.68148,159.746986 113.391181,157.928783 110.73,157.84 L102.66,157.58 C95.66,157.35 94.87,167.26 101.06,169.37 C108.71,171.96 115.41,167.47 122.72,165.87 C126.528897,165.051777 130.438007,164.802402 134.32,165.13 C138.06,165.43 142.22,167.24 145.95,166.13 C152.36,164.31 153.05,157.47 152.61,151.91 C151.93,143.43 151.2,134.91 150.61,126.46 C148.15,91.86 146.79,57.1933333 146.53,22.46 C146.486914,19.1643035 143.825697,16.5030865 140.53,16.46 L106.25,16.8 C102.954303,16.8430865 100.293086,19.5043035 100.25,22.8 C100.643333,53.6466667 101.663333,84.4766667 103.31,115.29 C103.71,122.66 104,130.04 104.97,137.36 C105.76,143.36 106.6,150.88 110.13,155.94 C114.04,161.55 120.63,159.29 126.22,158.1 C132.22,156.82 140.56,156.73 143.22,150.1 C145.42,144.59 143.05,137.63 142.1,132.03 C140.69,123.72 139.21,115.43 138.01,107.09 C135.87,92.25 134.92,77.3 136.32,62.34 C136.99,55.22 138.06,48.15 138.85,41.05 C139.45,35.68 139.32,29.38 135.17,25.29 C131.522152,21.8124042 125.911905,21.4339019 121.83,24.39 C116.58,28.05 115.25,35.07 114.42,40.96 C112.17,57.02 115.69,73.41 116.95,89.43 C118.318598,107.031274 118.799207,124.690341 118.39,142.34 C118.22,150.07 130.22,150.06 130.39,142.34 C130.802054,117.287823 129.589511,92.2352848 126.76,67.34 C126.087769,61.8281851 125.730522,56.282509 125.69,50.73 C125.675995,47.9105964 125.859779,45.093683 126.24,42.3 C126.468562,40.7909126 126.77902,39.2953711 127.17,37.82 C127.336764,37.0848089 127.547136,36.3601945 127.8,35.65 C128.686667,34.8433333 128.593333,34.3466667 127.52,34.16 C125.99,32.69 127.15,36.06 127.18,36.76 C127.11056,39.190074 126.849753,41.610899 126.4,44 C125.61,50.45 124.71,56.89 124.13,63.36 C121.91,88.23 126.64,112.77 130.76,137.18 C131.13,139.37 130.94,142.7 131.98,144.62 L132,145.8 C132.933333,144.566667 132.79,144.216667 131.57,144.75 C130.57,144.43 127.8,145.55 126.76,145.75 C124.4,146.25 119.99,146.24 118.09,147.6 L117.09,147.81 C119.583333,149.763333 120.34,149.79 119.36,147.89 C119.56,146.63 118.18,144.01 117.89,142.79 C115.15,131.37 115.34,119.15 114.75,107.47 C113.336667,79.2833333 112.453333,51.0766667 112.1,22.85 L106.1,28.85 L140.38,28.51 L134.38,22.51 C134.626667,52.9433333 135.703333,83.3533333 137.61,113.74 C138.083333,121.253333 138.61,128.76 139.19,136.26 C139.49,140.173333 139.806667,144.086667 140.14,148 C140.28,149.63 140.44,151.26 140.56,152.89 C140.68,154.52 139.8,156.73 141.73,155.24 C144,153.48 140.67,153.91 139.3,153.69 C137.61,153.42 135.9,153.21 134.19,153.08 C130.708212,152.854904 127.212416,152.995674 123.76,153.5 C120.251725,153.976708 116.800772,154.807617 113.46,155.98 C110.46,157.04 107.34,158.85 104.12,157.76 L102.52,169.55 L110.59,169.81 L107.59,158.63 C106.32,159.45 106.37,159.45 104.85,158.95 L108.44,167.76 C112.67,158.2 110.29,147.88 109.09,137.86 C107.74,126.56 106.29,115.28 105.17,103.96 C104.09,92.96 103.31,81.96 103.24,70.96 C103.17,59.96 104.84,49.16 104.7,38.27 C104.6,29.72 102.39,18.42 93,15.37 C83,12.12 77.73,22.73 76.5,30.8 C74.89,41.3 76.32,52.44 76.96,62.98 C77.6266667,74.3866667 78.55,85.7733333 79.73,97.14 C80.9633333,109.366667 82.45,121.563333 84.19,133.73 C85.44,142.51 88.85,155.16 82.27,162.63 L92.27,165.28 C84.9615408,138.88746 81.0829644,111.663483 80.73,84.28 C80.5955243,70.7837218 81.2868154,57.291856 82.8,43.88 C83.92,33.81 87.36,17.88 76.59,11.71 C73.35,9.84 68.66,11.48 67.78,15.3 C62.09,40.42 57,65.44 59.75,91.28 C61.07,103.65 63.43,115.9 64.53,128.28 C65.09,134.65 64.98,141.02 65.33,147.4 C65.4790468,150.477837 65.8399007,153.541753 66.41,156.57 C66.74,158.27 68.64,162.84 66.73,163.73 L75.54,167.32 C69.22,145.32 70.12,121.93 69.75,99.21 C69.56,87.58 68.89,75.84 69.45,64.21 C69.98,53.14 74.82,42.4 74.05,31.27 C73.47,22.79 68.15,12.27 58.2,12.93 C47.2,13.62 45.75,26.51 44.58,34.93 C41.37,58.12 42.88,81.48 45.51,104.64 C46.97,117.47 48.75,130.25 50.21,143.08 C50.78,148.08 52.37,154.36 51.05,159.35 C50.12,162.88 45.73,164.61 43.48,161.01 L38.3,170.01 L44.3,170.6 C47.37,170.9 50.52,167.6 50.3,164.6 C48.26,137.306667 47.5166667,109.973333 48.07,82.6 C48.3566667,69.0866667 48.97,55.5833333 49.91,42.09 C50.54,33.41 54,18 42.26,15 C39.6396265,14.3385586 36.8934023,15.4564906 35.48,17.76 C26.34,32 23.21,48.76 22.48,65.45 C21.7730092,84.2070405 22.6494495,102.990293 25.1,121.6 C26.21,130.6 27.93,139.6 27.59,148.75 C27.5264962,150.872028 27.292408,152.985509 26.89,155.07 C26.7,156.07 25.82,157.64 26.02,158.52 L25.76,159.38 L30.5,158.29 C30.74,157.88 28.87,152.46 28.75,151.72 C28.4237666,149.400258 28.2434122,147.062331 28.21,144.72 C27.57,125.78 27.86,106.66 28.47,87.72 C29.15,66 31,44.24 35.17,22.81 C36.65,15.27 25.08,12 23.59,19.62 L23.59,19.62 Z" id="Shape" fill="#B1E8EF"></path>
                        <path d="M111.74,41.39 C115.813333,65.0233333 118.723333,88.8033333 120.47,112.73 C121.03,120.39 133.04,120.45 132.47,112.73 C130.63,87.75 127.576667,62.9066667 123.31,38.2 C122,30.6 110.43,33.82 111.74,41.39 L111.74,41.39 L111.74,41.39 Z" id="Shape" fill="#B1E8EF"></path>
                        <path d="M88.08,33.81 C87.5503659,45.7222587 87.9851167,57.6578414 89.38,69.5 C90.27,77.08 102.28,77.17 101.38,69.5 C99.9851167,57.6578414 99.5503659,45.7222587 100.08,33.81 C100.42,26.09 88.42,26.11 88.08,33.81 L88.08,33.81 L88.08,33.81 Z" id="Shape" fill="#B1E8EF"></path>
                        <path d="M69,30.06 L68.7,28.52 C68.65,20.8 56.81,20.79 56.7,28.52 C56.5289258,42.9062995 55.4568264,57.2677555 53.49,71.52 C52.49,78.93 62.91,82.38 65.06,74.71 L65.77,72.17 C67.84,64.7 56.27,61.52 54.18,69 L53.47,71.54 L65,74.68 C67.1765658,59.3844965 68.3922826,43.9676051 68.64,28.52 L56.64,28.52 C56.6066011,30.1271094 56.8536326,31.7277383 57.37,33.25 C59.79,40.54 71.37,37.42 68.94,30.06 L68.94,30.06 L69,30.06 Z" id="Shape" fill="#B1E8EF"></path>
                        <path d="M14.18,176.64 C11.18,168.36 12.55,158.7 12.39,150.04 C12.2166667,140.16 12.07,130.28 11.95,120.4 C11.7033333,100.313333 11.5666667,80.2266667 11.54,60.14 L11.54,30.5 C11.54,25.74 10.71,19.83 14.27,16.2 C17.56,12.84 24.27,12.1 28.69,11.09 C38.83,8.79 48.3,9.59 58.53,10.57 C68.39,11.51 78.29,11.87 88.19,11.95 C98.09,12.03 108.02,11.86 117.93,11.75 C127.54,11.64 137.62,10.88 147.18,12.08 C160,13.7 158.18,26.58 158.18,36.31 L158.18,66.31 L158.18,125.67 L158.18,155.49 C158.18,159.93 158.4,164.44 158.18,168.88 C158.02,172.12 157.27,175.19 154.13,176.81 C151.6,178.11 148.41,178.45 145.64,178.66 C135.04,179.47 124.13,177.84 113.49,177.76 C102.31,177.68 91.12,178.04 79.95,178.45 C69.1,178.85 58.25,179.29 47.39,179.45 C41.81,179.51 36.22,179.45 30.64,179.35 C25.91,179.22 15.74,180.41 12.12,176.97 C10.72,175.64 8.6,177.76 10,179.09 C12.25,181.23 14.84,181.52 17.84,181.74 C23.73,182.18 29.66,182.36 35.56,182.44 C46.74,182.6 57.92,182.28 69.09,181.88 C91.67,181.08 114.09,180.57 136.63,181.68 C143.38,182.01 154.36,182.82 159.05,176.68 C160.9,174.26 161.12,171.16 161.18,168.23 C161.29,162.35 161.18,156.45 161.18,150.56 L161.18,82.35 L161.18,32.35 C161.18,28.1 161.46,23.64 160.38,19.48 C158.44,11.99 152.3,9.34 145.08,8.91 C134.08,8.25 123,8.72 112.01,8.85 C100.45,8.99 88.88,9.14 77.33,8.76 C66.16,8.39 55.05,6.58 43.9,6.37 C34.84,6.2 24.06,7.9 15.75,11.6 C7.9,15.09 8.6,23.15 8.58,30.54 C8.48,55.8733333 8.55333333,81.23 8.8,106.61 C8.92,119.123333 9.08333333,131.636667 9.29,144.15 C9.39,150.29 9.51,156.41 9.43,162.55 C9.37,167.66 9.53,172.63 11.28,177.48 C11.93,179.28 14.83,178.48 14.17,176.68 L14.17,176.68 L14.18,176.64 Z" id="Shape" fill="#000000"></path>
                        <path d="M12.61,177.49 C1.07,174.08 4.37,154.9 4.32,145.8 L4.15,112.92 C4.03,90.68 3.87,68.44 3.8,46.19 C3.8,35.71 2.96,23.92 5.65,13.71 C8.79,1.78 22.73,3.71 32.39,3.71 L97.79,3.83 C110,3.83 122.39,3.29 134.57,4.21 C139.9,4.61 146.66,4.85 150.32,9.21 C152.93,12.36 154.73,16.09 157.38,19.21 C158.63,20.68 160.75,18.55 159.5,17.09 C156.99,14.09 155.27,10.61 152.83,7.6 C149.83,3.89 147.03,3.01 142.31,2.14 C130.99,0.06 119.15,0.83 107.7,0.81 L30.4,0.71 C22.46,0.71 11.9,-0.46 6.03,6.21 C-0.16,13.21 1.03,26.73 0.86,35.33 C0.36,60.84 1.01,86.41 1.14,111.92 L1.37,155.76 C1.37,164.91 1.02,177.19 11.81,180.38 C13.67,180.93 14.46,178.03 12.61,177.49 L12.61,177.49 L12.61,177.49 Z" id="Shape" fill="#000000"></path>
                    </g>
                </g>
            </g>
        </g>
    </g>
</svg>