<?xml version="1.0" encoding="UTF-8"?>
<svg width="88px" height="80px" viewBox="0 0 88 80" version="1.1" xmlns="http://www.w3.org/2000/svg" xmlns:xlink="http://www.w3.org/1999/xlink">
    <!-- Generator: Sketch 41.2 (35397) - http://www.bohemiancoding.com/sketch -->
    <title>Group</title>
    <desc>Created with Sketch.</desc>
    <defs></defs>
    <g id="Page-1" stroke="none" stroke-width="1" fill="none" fill-rule="evenodd">
        <g id="Desktop-HD-Copy" transform="translate(-72.000000, -57.000000)">
            <g id="Group" transform="translate(72.000000, 57.000000)">
                <ellipse id="Oval-8" fill="#EF6767" cx="44" cy="35" rx="32" ry="30"></ellipse>
                <path d="M46.6551724,75.862069 C69.4892902,75.862069 88,58.8797664 88,37.9310345 C88,16.9823026 69.4892902,0 46.6551724,0 C23.8210547,0 5.31034483,16.9823026 5.31034483,37.9310345 C5.31034483,45.2664963 7.58001376,52.115619 11.510223,57.9195691 C12.8410372,59.8848534 -1.42108547e-14,79.6551724 -1.42108547e-14,79.6551724 C-1.42108547e-14,79.6551724 19.0847745,66.2671548 20.7728304,67.5119068 C27.8574696,72.7360337 36.858403,75.862069 46.6551724,75.862069 Z M37.9177512,47.2602979 C38.2911579,49.4667919 41.7197102,51.0622568 44.367503,50.5191198 C45.7253455,50.2475513 45.9290219,49.2291695 45.6913994,48.0410573 C44.9785321,43.6959614 49.6630887,41.8968201 53.1934791,40.2674091 C60.3900443,36.9746411 63.513082,32.2221924 63.513082,25.1953576 C63.513082,16.097813 56.927546,11.3793103 48.0676238,11.3793103 C44.8766939,11.3793103 34.8965517,14.2986717 34.8965517,18.6098215 C34.8965517,20.8163156 36.11861,21.3933986 37.2048839,21.3933986 C41.1426271,21.3933986 42.704146,16.9464645 47.9318395,16.9464645 C52.6842882,16.9464645 57.4367369,19.4924192 57.4367369,25.7724406 C57.4367369,31.7469475 54.1100228,34.1231719 48.7804911,36.5672883 C42.8059842,39.3848115 37.2727761,43.0170401 37.9177512,47.2602979 Z M35.9828257,59.9561251 C35.9828257,62.9433785 39.3774319,63.7241379 41.2444653,63.7241379 C44.0619885,63.7241379 45.4877231,62.2305112 45.4877231,59.5148262 C45.4877231,56.4936267 42.8399302,55.7807594 40.7352744,55.7807594 C38.5966725,55.7807594 35.9828257,57.8854153 35.9828257,59.9561251 Z" id="Combined-Shape" fill="#F4FFFB"></path>
            </g>
        </g>
    </g>
</svg>