<?xml version="1.0" encoding="UTF-8"?>
<svg width="88px" height="80px" viewBox="0 0 88 80" version="1.1" xmlns="http://www.w3.org/2000/svg" xmlns:xlink="http://www.w3.org/1999/xlink">
    <!-- Generator: Sketch 41.2 (35397) - http://www.bohemiancoding.com/sketch -->
    <title>Combined Shape</title>
    <desc>Created with Sketch.</desc>
    <defs></defs>
    <g id="Page-1" stroke="none" stroke-width="1" fill="none" fill-rule="evenodd">
        <g id="Desktop-HD-Copy" transform="translate(-72.000000, -57.000000)" fill="#060606">
            <path d="M118.655172,132.862069 C141.48929,132.862069 160,115.879766 160,94.9310345 C160,73.9823026 141.48929,57 118.655172,57 C95.8210547,57 77.3103448,73.9823026 77.3103448,94.9310345 C77.3103448,102.266496 79.5800138,109.115619 83.510223,114.919569 C84.8410372,116.884853 72,136.655172 72,136.655172 C72,136.655172 91.0847745,123.267155 92.7728304,124.511907 C99.8574696,129.736034 108.858403,132.862069 118.655172,132.862069 Z M109.917751,104.260298 C110.291158,106.466792 113.71971,108.062257 116.367503,107.51912 C117.725345,107.247551 117.929022,106.229169 117.691399,105.041057 C116.978532,100.695961 121.663089,98.8968201 125.193479,97.2674091 C132.390044,93.9746411 135.513082,89.2221924 135.513082,82.1953576 C135.513082,73.097813 128.927546,68.3793103 120.067624,68.3793103 C116.876694,68.3793103 106.896552,71.2986717 106.896552,75.6098215 C106.896552,77.8163156 108.11861,78.3933986 109.204884,78.3933986 C113.142627,78.3933986 114.704146,73.9464645 119.93184,73.9464645 C124.684288,73.9464645 129.436737,76.4924192 129.436737,82.7724406 C129.436737,88.7469475 126.110023,91.1231719 120.780491,93.5672883 C114.805984,96.3848115 109.272776,100.01704 109.917751,104.260298 Z M107.982826,116.956125 C107.982826,119.943379 111.377432,120.724138 113.244465,120.724138 C116.061988,120.724138 117.487723,119.230511 117.487723,116.514826 C117.487723,113.493627 114.83993,112.780759 112.735274,112.780759 C110.596672,112.780759 107.982826,114.885415 107.982826,116.956125 Z" id="Combined-Shape"></path>
        </g>
    </g>
</svg>