<?xml version="1.0" encoding="UTF-8"?>
<svg width="116px" height="105px" viewBox="0 0 116 105" version="1.1" xmlns="http://www.w3.org/2000/svg" xmlns:xlink="http://www.w3.org/1999/xlink">
    <!-- Generator: Sketch 41.2 (35397) - http://www.bohemiancoding.com/sketch -->
    <title>Combined Shape</title>
    <desc>Created with Sketch.</desc>
    <defs></defs>
    <g id="Page-1" stroke="none" stroke-width="1" fill="none" fill-rule="evenodd">
        <g id="Desktop-HD-Copy" transform="translate(-72.000000, -57.000000)" fill="#010005">
            <path d="M133.5,157 C163.599519,157 188,134.614237 188,107 C188,79.3857625 163.599519,57 133.5,57 C103.400481,57 79,79.3857625 79,107 C79,116.669472 81.9918363,125.697861 87.1725667,133.348523 C88.9268217,135.939125 72,162 72,162 C72,162 97.1572027,144.352159 99.3823673,145.992968 C108.72121,152.879317 120.586077,157 133.5,157 Z M121.98249,119.297665 C122.474708,122.206226 126.994163,124.309339 130.484436,123.593385 C132.274319,123.235409 132.542802,121.892996 132.229572,120.326848 C131.289883,114.599222 137.464981,112.227626 142.118677,110.079767 C151.605058,105.7393 155.72179,99.4747082 155.72179,90.2120623 C155.72179,78.2198444 147.040856,72 135.361868,72 C131.155642,72 118,75.848249 118,81.5311284 C118,84.4396887 119.610895,85.2003891 121.042802,85.2003891 C126.233463,85.2003891 128.291829,79.3385214 135.182879,79.3385214 C141.447471,79.3385214 147.712062,82.6945525 147.712062,90.9727626 C147.712062,98.848249 143.326848,101.980545 136.301556,105.202335 C128.42607,108.916342 121.132296,113.70428 121.98249,119.297665 Z M119.431907,136.033074 C119.431907,139.970817 123.906615,141 126.367704,141 C130.081712,141 131.961089,139.031128 131.961089,135.451362 C131.961089,131.468872 128.470817,130.529183 125.696498,130.529183 C122.877432,130.529183 119.431907,133.303502 119.431907,136.033074 Z" id="Combined-Shape"></path>
        </g>
    </g>
</svg>